<svg xmlns="http://www.w3.org/2000/svg" version="1.1" width="600px" height="600px" viewBox="0 0 200 200" style="overflow:hidden!important;"><defs id="SvgjsDefs15572"></defs><g id="svga-group-wrapper"><g id="svga-group-backs-single"><path id="SvgjsPath16378" d="M0 0h200v200H0V0z" fill="#f9feff" stroke-width="none" opacity="1" stroke="none"></path><path id="SvgjsPath16379" d="M88.8 158.9s-21.3-3-23.6-17.1c-1.5-9.3 10.5-9.3 14.8-5.5 0 0 3.3-8.7 9.9-7.2 8.4 1.9 9.2 12.7-1.1 29.8zM38.7 51s14.9-16.3 6.8-30.1c-5.3-9.2-14.9-1.5-15.7 4.6 0 0-8.8-5.6-13 0-5.4 7 1.6 17 21.9 25.5zM168 165s-2.6-14.4 1.6-22.7 14.8-4 13.3 4.9c0 0 8.2-2 10.6 4.5 2.3 6.4-10 12.7-25.5 13.3zm6.6-139.5s5.2-1.9 5.9-4.8c.8-3-3-3.5-4.5-1.6 0 0-1.1-2.8-3.1-2.2-1.9.5-2.2 2.6 1.7 8.6z" fill="#aed8e0" stroke-width="none" opacity="1" stroke="none"></path><path id="SvgjsPath16380" d="M125 33.1s-13-1.2-19.2-6.8.1-13.7 7.4-10.3c0 0 .2-7.6 6.3-8 6.2-.5 8.7 11.5 5.5 25.1zm15.9 84.9s3.6-4.2 2.8-7.1c-.8-3-4.4-1.6-4.7.8 0 0-2.4-1.9-3.8-.4s-.6 3.4 5.7 6.7zm12.2 66.9s7.1-.7 9-4.2-2.7-5.4-5.2-3.4c0 0-.5-3.9-3.2-3.8s-3.6 2.7-.6 11.4zm-122.9 5.7s23.3-3.5 29-15.3-9.8-17.2-17.5-10.6c0 0-2.3-12.8-11-11.9s-11.7 9.5-.5 37.8zm3.5-106.7s3.3-12.8-1.5-18.3-11 1.3-9.3 6.7c0 0-7.1-1.6-8.5 3-1.4 4.8 2.3 8.2 19.3 8.6z" fill="#d2ebf0" stroke-width="none" opacity="1" stroke="none"></path><path id="SvgjsPath16381" d="M149.4 76.1s-24.7-19.3-16.5-40.8c5.4-14.2 20.6-5.7 23.2 2.7 0 0 11-10 18.2-3.2 9.1 8.6 1.6 24.4-24.9 41.3zm7 29.6s-4.5-12.3-2-20.2 12.4-5.8 12.4 2.3c0 0 6.9-3 10 2.3 3 5.4-6.9 12.7-20.4 15.6zM53.9 143.9s-13-1.2-19.2-6.8.1-13.7 7.4-10.3c0 0 .2-7.6 6.3-8s8.7 11.6 5.5 25.1zm89.6 23.3s-4.6-9.3-3.3-15.7c1.2-6.5 9.3-5.6 10 .8 0 0 5.2-3 8 1s-4.3 10.5-14.7 13.9zM65.3 46s5.8-6.7 4.5-11.4-7-2.5-7.5 1.2c0 0-3.8-3.1-6-.7-2.2 2.4-1 5.6 9 10.9zm-40.7 81.2s4.7-5.4 3.7-9.3-5.7-2-6.1 1c0 0-3.1-2.5-4.9-.6s-.8 4.6 7.3 8.9zm53 60.3s5.2-1.9 5.9-4.8-3-3.5-4.5-1.6c0 0-1.1-2.8-3.1-2.2-1.8.6-2.1 2.7 1.7 8.6zm47.7-12.7s4.7-5.4 3.7-9.3c-1-3.9-5.7-2-6.1 1 0 0-3.1-2.5-4.9-.6-1.9 2-.9 4.6 7.3 8.9zm-22.6-132s4.7-5.4 3.7-9.3-5.7-2-6.1 1c0 0-3.1-2.5-4.9-.6-1.9 2-.9 4.6 7.3 8.9zM77.3 94.4s8.8-4.2 9.6-9.5-5.9-5.6-8.2-2.1c0 0-2.5-4.8-5.8-3.3-3.2 1.4-3.4 5.1 4.4 14.9z" fill="#e5f4f7" stroke-width="none" opacity="1" stroke="none"></path></g><g id="svga-group-humanwrap-move" transform="matrix(1,0,0,1,0,0)"><g id="svga-group-humanwrap" transform="matrix(1,0,0,1,0,0)"><g id="svga-group-hair-back-move" transform="matrix(1,0,0,1,0,0)"><g id="svga-group-hair-back" transform="matrix(1,0,0,1,0,0)"><path id="SvgjsPath16346" d="M71.8 42.3c.7-.3 1.3-.6 2-.7.3-.3.6-.6 1-.8 2.4-1.1 5.1-.8 6.6 1.6 1.4 2.1.4 4.9-1.6 6.2-1.1.7-2.5.8-3.7.5-.1 0-.3-.1-.4-.1h-.3c-.1 0-.3.1-.4.1-.1 0-.2.1-.3.1-.4.2-.9.3-1.4.3-.8 0-1.7 0-2.4-.5-2.7-1.7-1.6-5.4.9-6.7zm89 94.4v-.1.1zm11.4 2.6c-.3.3-.8 0-.7-.4.4-1.2-.5-2.5-1.6-3.9-.8 2-2.8 3.7-2.8 6 0 .6-.8.7-1 .3-.8-1.2-.6-2-.1-3.3 1.4-3.3 2.8-4-.9-6.1-1.1-.6-1.9-1.3-2.4-2.1.1.5.2 1 .5 1.9.2.6.9 1 1 1.6.3 1.9-.4 3.5-.2 5.4.2 1.8.8 2.3-.6 3.8-.4.4-1.4.1-1.3-.6.2-1.9-1.4-3.4-1.3-5.3.1 0 .4-2.1.6-2.1-.2-.3-1.6-1.4-1.5-1.2-1.1-1.8-.9-2.4-1.1-4.5-.4-3.5-2.5-4.1-3.5-6.9-.1.3-.3.6-.4.9-1.5 3.8 2.5 5.3 3 9 .3 2.9-1.8 4.5-1.5 7.2.2 2 1.1 2.4-.2 4.2-.3.4-1.1.2-.9-.4.7-2.6-1.8-4.1-1.4-6.5.4-3 2.6-1.6.3-5.2-.2.9-.9 1.6-1.3 2.6-1.5 3.2-.8 4.6-.9 7.6-.1 1.5-.4 2.6-1.3 3.8-.8 1-2.4.2-1.7-1 .9-1.7.3-3.6-.2-5.5l-.3.6c-.5 1.8-.3 2.7-.4 4.6 0 1.4.3 1.4-.5 2.6-.3.4-1.1.3-1.1-.3.1-1.2-.3-2.1-.6-3.1-.2.7-.6 1.5-1.4 2.3-.5.5-1.2-.2-1-.8 1.1-2.4-.2-3.9-1.3-5.5.1 2 .1 4-1 6-.3.7-1 .6-1.5.2-.2.3-.6.6-1 .9-.8.5-1.5-.6-.9-1.2 1.3-1.4-1.9-4.7-2.2-6.2-.1-.8 0-1.6.2-2.3-.8 1.8-1.4 2.9-1.2 5.1 0 .7.4 1.3.4 2-.1 1.2-.5 1.8-1.5 2.6-.7.5-1.2-.5-.8-1.1.7-.8.4-1.8 0-2.7-.1 1.1-.6 2.1-1.7 3.3-.6.6-1.6-.2-1.2-.9 1.3-2 .6-3.6-.1-5.3-.7 2-1.6 3.8-1.4 6.2 0 .7-1 .8-1.2.2-.2-.7-.7-1.5-1.1-2.4 0 1.6-.5 2.9-2.3 3.6-.3 1.1-1.8.7-1.9-.3-.1-1-.3-2.2-.3-3.4-.3 1.1-.3 2.2-.5 3.5 0 .4-.6.8-.9.4-.4-.4-.6-.8-.9-1.1-.3-.1-.5-.3-.7-.7-3.1-8.1-4.4-16.3-4.2-24.5-.3-3.7-.5-7.4-.6-10.8-.3-7.3-.1-14.6.9-21.9 1-7.4 3.1-14.5 5.5-21.6 2-6.1 3.7-12.5 6.6-18.2 0-.9.5-1.8 1.2-2.3 1-.8 2.2-.8 3.4-.2 2.9 1.4 4.7 4.5 4.6 7.7 0 .3-.1.6-.1.9 1.1 1.4 2.1 2.8 3 4.3.1 0 .3.1.4.2 1.7 1.3 3.1 1.8 5.2 2.2 1.5.3 2.6.8 3.5 2 1.3 1.8 1.7 4.9 1.2 7.4l.9.6c.4-.7 1.6-.8 1.9.2 1 2.8 1.8 6.1.1 8.8-.1.2-.2.3-.4.3-.2 1-.6 1.9-.9 2.9.2.2.3.5.4.8.3 1 .8 2.5 1.1 4 .2 0 .5.1.7.3 1.8 1.1 2.7 2.8 2.8 4.8.1.2.3.5.4.7.2.1.4.1.6.3 3.3 2.9 7.9 7.4 6.3 12.2-.1.2-.1.4-.2.6.2.4.4.9.5 1.4.3 1.2-.2 3.5-.3 5.3.4.5 1 .6 2.2 1.7.7.6 1.2 1.2 1.5 2 .4.2.8.4 1 .7 1 1.2.8 2.3.7 3.7-.3 3.3.2 2 2.1 4.1 1.8 2.1.3 4 1 6.3.4 2.5 3.4 4.2.7 7zm-26.4-4.6c-.1-.4-.2-.7-.3-1-.2.2-.3.4-.5.6-1.2 2.1-.8 2.4.2 4.7.1.3.2.6.4.9.1-1.8.5-3.4.2-5.2zm3.4-5c-.3.7-.5 1.4-.6 2.1-.1.8 0 1.5.1 2.2.2-.5.3-.9.5-1.5.7-1.7.5-2.2 0-2.8zm8-23.1c-.1-1.3 0-3-.4-4.6-.2.9-.4 1.9-.6 2.9-.3 1.9-.2 3.3.6 4.7.1-.5.2-1 .4-1.4v-1.6zm5.6 13.5c-.2-.2-.4-.3-.6-.5-.7-.5-1.6-.7-2.2-1.4-.2 1-.2 1.9.2 2.9.6 1.4 1.4 2.2 2 3.3l.3-1.2c.1-1.3.4-2.2.3-3.1zm3.5 7.3c-.3-.2-.6-.3-1-.5v.2c.3 1.3 1.5 2 2.6 2.7.1-.4-.1-1-1.6-2.4zm-78.2-9.9c.2 6.6 1.2 16.2-2.9 21.8-.5 2.4-1.9 4.4-2.2 6.9-.1.7-1.2 1-1.7.4-.9-1-1.1-1.8-1.2-2.8-.3.6-.6 1.2-.8 1.9-.2.7-1.2.7-1.4 0-.1-.2-.1-.4-.1-.6-.5.4-1.3.4-1.5-.4v-.1c-.3.3-.5.5-.4.5.5.8-.6 1.4-1.2.9-.8-.7-1.2-1.5-1-2.5.2-.9.7-1.5.9-2.2-.2-.1-.4-.4-.5-.7-1.1 1.3-2.4 2.4-1.4 4.2.4.7-.6 1.5-1.1.9-.7-.7-1.2-1.4-1.4-2.3-.2.8-.8 1.3-1.6 1.8-.5.2-1.1-.4-.6-.8 1.3-1.1-2-6.5-1.6-8.6.2-1 1-1.8 1.2-2.7 1.4-7.2.4-5-.5-4.3.2.8.3 1.6.1 2.6-.3 1.2-1.2 2.1-1.5 3.3-1.2 4.1.8 4.2 1.7 7 .6 1.9.6 3.6-1 4.9-.7.6-1.8-.2-1.3-1 1-1.9-.3-3.9-1.5-5.9 0 .5.1 1 .2 1.4.3 1.9.9 2.5-.4 4.2-.3.4-1 .1-1-.4.3-2.9-2.5-5-2.7-8-.1-.9-.1-1.8-.3-2.7-.7 1.1-1.1 1.5 0 4 .4 1 1.4 1.8 1.7 2.8.7 1.9.6 3.1-.6 4.8-.5.8-1.9.3-1.6-.7.9-3.2-3.1-5.1-4-7.6-.6-1.6-.1-2.6.1-4.2v-.2c-.4 1.2-.7 2.5-.5 3.7.5 2.8 2.1 4.3 1.9 7.4-.1.8-1.2 1.1-1.5.2 0-.2-.1-.3-.2-.4-.1.2-.2.5-.4.7-.6 1-2.3.3-1.9-.8 1.2-3-2.9-6.2-3.2-9.6-.6 1-1 2.1-.6 3.5.7 2.8 3 5.4-.3 7.3-1.1.7-2.2-.6-1.7-1.7.6-1.1-1-3.3-2.1-5.2-.6 1.7-1.3 3.5-.3 5.1.6.8-.7 1.8-1.4 1-2.1-2.4-.7-4-.4-6.8.3-2.4-.9-4.3-1.3-6.4 0 .1-.1.3-.1.4-.7 2.2-1.2 4-.8 6.6.1.6.5 1.1.5 1.7.2 1.6 0 2.1-.8 3.5-.5.8-1.7.3-1.5-.6.5-1.8-.3-3.3-.9-4.8-.8 1.4-2 2.8-1.6 4.2.2.8-1 1.3-1.4.6-.7-1.3-.8-2.1-.4-3.5.5-2.1 1.5-2 .1-4.6-.4-.7-1.3-1.1-1.8-1.9-.8-1.4-.6-2.4-.3-3.8.6-2.8 3.8-.5.5-6.3v-.1c-.7.6-1.3 1.2-1.5 2.2-.4 1.9 1.2 3.5.8 5.5-.5 2.3-4.4 4.5-3.4 7 .2.7-.7 1-1.1.6-1-.9-1.2-1.2-1.1-2.6.1-1.2.5-1.3 1-2.3 1.4-3.3 2.1 2 1.3-6.2-.1-1.4-.8-2.2-.3-3.7.2-.6.6-1 .9-1.4.9-1.8 1.5-2.7 1-4.7-.4-1.7-1.5-2.8-1-4.7.4-1.8 2.2-2.7 2.6-4.4.4-1.5-.6-2.8 0-4.4.5-1.3 1.1-1.2 1.9-2.2.9-1.2 1.4-2.3 2.1-3.6.4-.6 1-.8 1.7-.7 0-.2-.1-.3-.1-.5-.4-1.2.4-2.2 1.5-2.7.6-.8 1.1-1.5 1.7-2.3.2-.4.5-.7.8-.9.3-.9.7-1.8 1.2-2.7-.2-.2-.4-.4-.5-.6-1.3-2.2-.5-4.9.7-7.1.6-1.1 1.5-2 2.6-2.6l.3-.9c.1-.3.3-.6.5-.9-.4-.2-.8-.4-1.1-.7-1.4-1.1-1.6-3.4-1-4.9.6-1.3 1.7-2.3 3.1-2.7 1.2-.3 2.5-.2 3.6.5v-.2c.2-1.4.7-2.5 1.2-3.6-.1-.1-.2-.2-.3-.4-.6-.9-.6-1.9-.4-3 .3-1.9 1.9-3.6 3.7-4.2.6-.2 1.2-.2 1.7 0 1.4-2.9 3.1-4.9 6.5-5.8 1.4-.4 3 0 4 1l.5.5c.6.6 1 1.5.9 2.4 10 9.2 13.9 25.9 16.5 38.5 1.8 7.9 2.7 16.2 3 24.4zm-52.6-6.8c0-.2-.1-.5-.1-.7-.1.2-.2.3-.3.5-1.3 1.8-1.8 2.5-1.5 3.9.8-1.1 1.7-2.2 1.9-3.7zm.7 8.3c.3-.7 1.1-1.6 1.3-2.4v-.3c-.5.4-.9.8-1.1 1.3-.8 1.6-.8 1.4-.3 1.9 0-.1.1-.3.1-.5zm1.7 7.9c-.6 1.7-1.7 3.4-1.1 5.3.1.3.2.6.4.8.3-.9.9-1.6 1.1-2.6.2-1.3 0-2.4-.4-3.5zm3.7-2.7c-.3-1.5-1-2.7-.6-4.3.2-.8.4-1.5.7-2.2h-.2c-.7 1.7-1.7 3.2-1.4 5.3.2 1.3 1 2.4 1.5 3.6.1-.9.1-1.6 0-2.4zm3.9 3c-.3 1.1-.8 2.1-.9 3.3 0 .8.1 1.5.2 2.1 0-.1.1-.2.1-.2.7-1.9 1.6-3.3.6-5.2zm25.4 9.2c-.4-.6-.7-1.2-.9-1.8-.1.2-.1.3-.2.5-.9 2.5.1 4 .5 6.3v.2c.3-.8.9-1.1 1.2-1.8.7-1.6.3-2-.6-3.4zm8.2 3.4c0-.9-.7-1.9-1.4-2.9v.8c.2.9.4 1.8.4 2.8.1.6.2 1.2.1 1.9v.6c.4-1.1 1-2 .9-3.2z" fill="#2c2219" stroke-width="none" opacity="1" stroke="none"></path></g></g><g id="svga-group-humanbody-back"><path id="SvgjsPath15876" d="m168.5 219.5-1.7-21.5s.7-9-8.8-15.3-23.4-10.1-29.5-14.2c-6.1-4.1-9.2-4.5-9-16.9s.9-40.3.9-40.3H79.6s.7 27.9.9 40.3c.2 12.4-2.9 12.8-9 16.9-6.1 4.1-20 7.9-29.5 14.2S33.2 198 33.2 198l-1.6 21.5h136.9z" fill="#b2713b" stroke-width="none" opacity="1" stroke="none"></path></g><g id="svga-group-chinshadow-single"><path id="SvgjsPath16213" d="M80.31 156.98c10.01 4.71 16.86 5.42 19.69 5.42s9.68-.72 19.69-5.42c-.16-1.5-.22-3.26-.19-5.38.2-12.4.9-40.3.9-40.3H79.6s.7 27.9.9 40.3c.03 2.12-.03 3.88-.19 5.38z" fill="#934d13" stroke-width="none" opacity="0.65" stroke="none"></path></g><g id="svga-group-humanbody-front"><path id="SvgjsPath15877" d="M73.8 175.9c5.1 2.9 11.8 5.2 17.6 5.7.4 0 .4-.6.1-.7-2.8-1.1-5.9-1.7-8.8-2.6-2.9-.9-5.8-2-8.8-2.7-.1-.1-.3.2-.1.3zm35.2 6.2c5.3-.6 11.3-3 15.9-5.8.3-.2.1-.6-.2-.5-2.6.9-5.2 2-7.8 2.9-2.6.9-5.4 1.5-8 2.5-.5.1-.5.9.1.9z" fill="#934d13" stroke-width="none" opacity="1" stroke="none"></path><path id="SvgjsPath15878" d="m168.4 219.4-2.1-21.4c0-2.2-.5-4.5-1.5-6.6-.9-2.1-2.3-3.9-3.9-5.5s-3.5-2.8-5.5-4c-2-1.2-4.1-2.2-6.2-3.1-4.2-1.9-8.6-3.6-12.9-5.4-2.2-.9-4.3-1.9-6.4-3-1.1-.6-2.1-1.2-3-1.9-1-.6-2-1.2-3-1.9s-2-1.5-2.8-2.6c-.8-1-1.3-2.2-1.7-3.4-.7-2.4-.8-4.8-.8-7.2 0-4.7.2-9.4.3-14.1.2-9.4.6-18.7.9-28l.6.6-20.4-.2-20.4-.1.3-.3.7 28c.1 4.7.3 9.3.4 14 0 2.4-.1 4.7-.8 7.1-.3 1.2-.9 2.3-1.6 3.3-.8 1-1.7 1.8-2.7 2.5s-2 1.3-2.9 2c-.9.6-1.9 1.3-3 1.9-2.1 1.2-4.2 2.1-6.4 3.1-4.3 1.9-8.6 3.6-12.8 5.6-2.1 1-4.2 2.1-6.1 3.2-2 1.2-3.8 2.4-5.4 4-1.6 1.6-2.9 3.4-3.8 5.4-.4 1-.8 2.1-1 3.1-.2 1.1-.4 2.2-.3 3.2v.2l-1.5 21.5-1-1.1 34 .1c11.3 0 22.7.1 34.1.2l34.2.3 34.4.5zm.2.2-34 .4-34.2.3c-11.4.1-22.9.2-34.4.2l-34.4.1h-1.1l.1-1.1 1.7-21.5v.1c-.1-5.1 2.2-9.8 5.7-13.3 1.7-1.7 3.8-3.1 5.8-4.3 2-1.2 4.2-2.2 6.3-3.2 4.3-2 8.7-3.7 13-5.4 2.1-.9 4.3-1.8 6.3-2.9 1-.5 1.9-1.1 3-1.8 1-.6 2-1.2 2.9-1.9.9-.6 1.8-1.4 2.4-2.2.7-.9 1.2-1.9 1.5-2.9.6-2.1.8-4.5.8-6.8 0-4.6-.1-9.3-.2-14l-.6-28v-.3h.3l20.4-.1 20.4-.2h.6v.6c-.1 9.3-.2 18.7-.4 28-.1 4.7-.2 9.4-.2 14 .1 2.3.2 4.6.8 6.7.3 1.1.8 2 1.4 2.9.6.8 1.4 1.6 2.4 2.2.9.6 1.9 1.3 2.9 1.9 1 .7 1.9 1.3 2.9 1.8 2 1.1 4.1 2.1 6.3 3 4.3 1.8 8.6 3.6 12.9 5.6 2.1 1 4.2 2.1 6.2 3.3 2 1.2 4 2.6 5.7 4.3 3.4 3.4 5.6 8.1 5.4 13v-.1l1.4 21.6zm-112.8-.4 1.9-13.8.1 13.8h-2zm88.6 0-1.9-13.8-.1 13.8h2z" fill="#843e04" stroke-width="none" opacity="1" stroke="none"></path></g><g id="svga-group-clothes-single"><path id="SvgjsPath16322" d="M163.5 187.5s-9.4 9.9-64.1 11.4c-52.2 1.4-63.4-12-63.4-12s-5.7 7.5-7.8 10.1-3.4 4.1-3.4 4.1 1.2 3.1 3.2 3.4 2-1.1 3.8-.3 3.8 3.1 3.4 4.1c-.5 1.1.2 2.8 1.8 3.5 1.7.8 5.7 2.9 6.3 1.8s3.1-1.2 2.8.1c-.3 1.4 2.3 2.9 3.4 3.2 1.1.3 3.3-2.1 4.4-2.7.7-.4 2.2-.2 3.4.2v5.4h86.1l-.1-3.1c4-.4 9.4-.8 10.7-1.6 1.8-1.1 2.8-4.6 4.5-3.4s4.9 1.2 6.7.3.3-2.6.6-4c0 0-.4-1.8 2.3-2.1s5.9-4.2 5.9-4.2l-10.5-14.2z" fill="#386e77" stroke-width="none" opacity="1"></path><path id="SvgjsPath16323" d="M174.6 201.5 164.2 187l-.1-.1c-.3-.4-.9-.4-1.3-.1l-.1.1c-.1.1-.4.4-.7.5-.2.2-.5.4-.8.5-.6.3-1.1.6-1.7.9-1.2.6-2.4 1.1-3.7 1.5-1.2.5-2.6.8-3.9 1.2-1.3.4-2.6.7-3.9 1-5.3 1.3-10.7 2.1-16.1 2.9-10.8 1.4-21.7 2-32.7 2.4-10.9.4-21.9.2-32.7-1.1-5.4-.6-10.8-1.6-16-3.1-2.6-.7-5.2-1.6-7.7-2.7-1.2-.6-2.5-1.1-3.6-1.9-.6-.4-1.2-.7-1.7-1.1-.3-.2-.5-.4-.8-.6-.1-.1-.3-.2-.4-.3l-.2-.2-.1-.1s0-.1-.2-.1c-.2.1-.2.2-.2.3l-.2.2-.3.4-.7.9-1.4 1.8-2.8 3.5c-1.9 2.4-3.9 4.6-5.8 7-.1.1-.1.3-.1.5.4.9.8 1.6 1.4 2.4.3.4.7.7 1.1 1 .4.3 1 .4 1.5.4s1.1-.1 1.5-.2c.5-.2.7-.3 1-.3.6 0 1.4.5 2 1 .6.5 1.2 1.1 1.5 1.8.2.3.3.7.2.8v.1l-.1.2c0 .1-.1.3-.1.4v.9c.2 1.1.9 2 1.7 2.6.2.1.5.3.7.4l.6.3 1.2.6c.8.4 1.6.7 2.5 1 .5.1.9.3 1.5.3.3 0 .7 0 1.1-.3.2-.1.4-.5.4-.4 0 0 0-.1.1-.1.2-.1.5-.3.8-.3h.4c-.1.4 0 .8.1 1.1.2.6.6 1 1 1.4.7.7 1.5 1.2 2.4 1.6.1.1.2.1.4.1H49.8c.4 0 .7-.1.9-.2.5-.2.9-.5 1.2-.8.7-.6 1.4-1.1 2-1.6.2-.1.3-.2.3-.2.1 0 .3-.1.4-.1.3 0 .7 0 1.1.1.3.1.7.1 1.1.3-.1 1.5-.1 3-.2 4.6 0 .3.2.5.5.5l10.8.2 10.8.1c7.2.1 14.3.1 21.5-.1 7.2-.1 14.3-.4 21.5-.4 7.2 0 14.4.1 21.5.2.3 0 .5-.2.5-.5v-2.7c2.3-.2 4.6-.4 6.9-.7.9-.1 1.7-.2 2.6-.5.4-.1 1-.4 1.3-.7.4-.3.7-.7 1-1 .6-.7 1.1-1.5 1.6-1.9.3-.2.5-.3.6-.2.1 0 .1.1.2.1l.3.2c.2.1.4.2.6.4 1.8.8 3.7.8 5.6.3.5-.2.9-.3 1.4-.7.5-.4.8-1.1.8-1.7 0-.6-.1-1-.2-1.4-.1-.4-.1-.8-.1-1V208c0-.1.1-.2.2-.3.2-.2.5-.4.8-.4.2-.1.4-.1.6-.1.2 0 .5-.1.8-.1.5-.2 1-.4 1.4-.6.9-.5 1.6-1.1 2.3-1.7.7-.6 1.4-1.3 2-2 .4-.6.5-1 .2-1.3zm-116.9 18c0-1.3-.1-2.5-.2-3.8.1.1.3.1.4.2l.3.3.4.5c.1.2.3.4.6.6.3.2.5.4.8.4.4.1.6.2.8.2l.7.1c.5.1.9.1 1.3.2.9.1 1.8.2 2.7.2h1.4c.5-.1.9-.1 1.6-.3.2-.1.4-.2.6-.5l.2-.3c.1-.2.2-.4.3-.5.2-.3.5-.6.6-.6.1-.2 1.1.1 1.7.4.4.2.7.4 1 .6.2.1.3.2.4.3l.2.2.1.1.1.1.1.1c.3.2.6.3.8.4.2.1.5.2.7.2.4.1.9.2 1.3.3.4.1.8.1 1.2.2l-10 .1-10.1.3zm25.5-1.8c.1 0 .1 0 0 0zm.5 1.4c.3-.1.6-.2.9-.8l.1-.3c0-.1.1-.1.1-.2.3-.4.9-.7 1.7-.8h.6c.1 0 .2 0 .4.1.3.1.6.4.9.6.3.3.7.6 1.2.9.2.1.5.2.8.3.2.1.5.1.7.1.2 0 .4.1.7.1h-8.1zm59.1.4c-7 .1-14 .2-20.9.2-6.5 0-13-.2-19.5-.4.2-.1.6-.3.7-.4.3-.3.7-.5 1-.7 1.4-.9 3.1-1.5 4.6-1.2.7.2 1.5.7 2.3 1.1.8.4 1.6.8 2.5 1 .5.1.9.1 1.4 0 .4-.1.9-.2 1.4-.5.9-.6 1.2-1.5 1.7-2.1.3-.3.4-.4.7-.3.3.1.6.4 1 .7.7.5 1.5 1 2.3 1.3.8.4 1.7.6 2.6.7.9.1 1.8 0 2.7-.1.9-.1 1.8-.3 2.6-.5.9-.3 1.7-.5 2.5-1.1.7-.7 1.2-1.3 1.8-1.8.3-.2.7-.5 1-.5.3-.1.6.1.8.4.2.3.4.7.6 1.1.2.4.4.9.8 1.2 1 .7 2 .3 2.8.2.8-.1 1.6-.2 2.4-.2l.2 1.9zm28.7-16.2c-.6.6-1.3 1.1-2 1.5-.4.2-.7.4-1.1.5-.2.1-.3.1-.6.1h-.2c-.8-1.5-1.6-2.9-2.6-4.3-1.2-1.7-2.4-3.4-3.9-4.9.9 2 2 3.7 3.1 5.5.9 1.3 1.9 2.6 3 3.9h-.2c-.5.2-1.1.4-1.5.9-.4.5-.6 1.1-.5 1.7-.1 1.2.4 2 .3 2.6 0 .3-.1.4-.2.6-.2.2-.6.3-.9.5-1.5.5-3.3.5-4.7-.1-.2-.1-.4-.2-.5-.2l-.3-.2c-.1-.1-.2-.1-.4-.2-.9-2.5-1.9-4.9-3-7.2-1.3-2.7-2.6-5.3-4.3-7.8.9 2.9 2.1 5.6 3.4 8.2 1.1 2.3 2.3 4.5 3.6 6.7h-.7c-.3.1-.6.3-.8.4-.8.7-1.2 1.4-1.7 2.1-.3.3-.5.6-.8.9-.3.3-.6.4-1 .5-.8.2-1.6.4-2.5.5-3.4.5-6.9.8-10.4 1.2-.4.1-.9.1-1.3.2-.4 0-.8 0-1-.2-.4-.3-.6-1.1-1-1.7-.4-2.3-.9-4.5-1.5-6.8-.8-2.7-1.6-5.4-2.8-8.1.4 2.8 1.1 5.6 1.8 8.3.5 1.9 1.1 3.8 1.8 5.7-.1-.1-.1-.1-.2-.1-.3-.1-.6-.1-.8-.1-.5.1-.9.4-1.3.7-.7.6-1.3 1.3-1.9 1.9-.6.5-1.4.8-2.2 1-.8.2-1.7.4-2.5.5-.8.1-1.7.2-2.5.1s-1.7-.3-2.4-.7c-.8-.3-1.5-.8-2.2-1.3l-.5-.4c-.2-.1-.4-.3-.6-.4h-.1c0-2.3-.3-4.5-.6-6.7-.4-2.4-.9-4.8-1.6-7.1 0 2.4.3 4.9.7 7.2.4 2.2.8 4.4 1.5 6.5-.2 0-.4 0-.7.1-.3.1-.5.3-.6.5-.6.8-.9 1.5-1.5 1.9-.3.2-.7.3-1.1.4-.4.1-.8.1-1.2 0-.8-.1-1.6-.5-2.3-.9l-1.1-.6c-.4-.2-.8-.5-1.3-.6-.9-.3-1.9-.1-2.8.1-.9.2-1.7.6-2.5 1.1l-.9.6c.2-1.5.1-2.9.1-4.4-.1-1.8-.3-3.6-.8-5.4-.3 1.8-.3 3.6-.2 5.4.1 1.5.2 3.1.6 4.6-.1.1-.2.1-.3.2-.2.1-.3.1-.6.1-.8.1-1.7.1-2.5.1-1.7-.1-3.4-.2-5.2-.4-.9-.1-1.7-.2-2.6-.4-.2 0-.4-.1-.6-.1-.2-.1-.3-.1-.4-.2-.3-.2-.6-.4-.9-.7s-.7-.6-1.2-.9c-.3-.1-.6-.2-.9-.2h-.7c-.5 0-1 .1-1.5.3-.3.1-.7.3-1 .6.1-.7.2-1.3.2-2l.3-3.9c.1-2.6.2-5.3 0-7.9-.6 2.6-.8 5.2-.9 7.9-.1 1.3-.1 2.6-.1 4 0 .8 0 1.7.1 2.5-.1.1-.1.2-.2.3 0 .1-.1.1-.1.2h-.1c-.3.1-.7.1-1.1.1-.8 0-1.7 0-2.5-.1s-1.7-.2-2.5-.4l-1.2-.3c-.4-.1-.8-.3-.9-.4l-.1-.1-.3-.3c-.2-.2-.4-.3-.6-.5-.4-.3-.8-.5-1.2-.7-.4-.2-.9-.4-1.4-.5-.3-.1-.5-.1-.9-.1s-.7.1-1 .2c-.4.2-.6.4-.9.7.3-1.2.6-2.4.8-3.6.3-2 .6-4.1.5-6.1-.7 1.9-1.2 4-1.5 6-.2 1-.3 2-.4 3.1 0 .6-.1 1.1-.1 1.6l-.1.1-.1.2c-.2.1-.6.1-.9.1h-1.2c-.8 0-1.7-.1-2.5-.2-.4 0-.8-.1-1.3-.1l-.6-.1c-.2 0-.4-.1-.5-.1-.3-.1-.4-.2-.7-.5l-.4-.5c-.1-.1-.4-.5-.7-.6-1-.6-1.8-.8-2.8-1-.5-.1-1-.1-1.5-.1-.3 0-.5.1-.8.2.8-1.9 1.5-3.9 2.1-5.9.8-2.8 1.6-5.5 2.1-8.4-1.2 2.6-2.2 5.4-3 8.1-.7 2.1-1.3 4.3-1.7 6.5-.1 0-.1.1-.2.1-.8.6-1.4 1.1-2 1.6-.3.2-.7.5-1 .6-.1.1-.3.1-.3.1-.1 0-.2-.1-.2-.1-.7-.3-1.4-.7-2-1.2-.3-.2-.5-.5-.5-.7v-.2c.1-.3.1-.8-.2-1.3-.3-.4-.7-.6-1-.6-.3-.1-.6-.1-.9 0-.6.1-1.1.3-1.6.7l-.4.4h-.1c-.3 0-.7-.1-1.1-.2-.8-.2-1.6-.6-2.3-.9l-1.2-.5-.6-.3c-.2-.1-.3-.1-.5-.2-.6-.4-1-1-1.2-1.6v-.7l.1-.3v-.6c1.3-1.9 2.5-3.8 3.6-5.8 1.4-2.5 2.7-5.1 3.8-7.8-1.8 2.3-3.2 4.8-4.7 7.3-1 1.9-2 3.7-2.9 5.7-.1-.2-.2-.4-.2-.5-.5-.9-1.2-1.5-1.9-2.1-.8-.6-1.5-1.1-2.7-1.2-.6 0-1.1.3-1.5.4-.4.1-.7.2-1 .2-1.3 0-2.4-1.4-3.1-2.8l5.4-6.9 2.7-3.7 1.3-1.8.7-.9.3-.5.2-.2c0-.1.1-.1.1-.1l.1.1.2.2.4.4c.3.2.5.4.8.7.5.4 1.1.8 1.7 1.2 1.2.8 2.4 1.4 3.6 2 2.5 1.2 5.1 2.2 7.7 3 5.3 1.7 10.7 2.7 16.1 3.6 5.4.8 10.9 1.2 16.4 1.5 5.5.2 11 .3 16.5.2 11-.3 22-.9 32.9-2.3 5.5-.7 10.9-1.6 16.3-3 1.3-.4 2.7-.7 4-1.1 1.3-.4 2.7-.8 4-1.3 1.3-.5 2.6-1 3.9-1.6.6-.3 1.3-.6 1.9-1l.9-.6s.1 0 .1-.1l9.6 13.1c-1 .2-1.5.7-2 1.1z" fill="#184f58" stroke-width="none" opacity="1"></path><path id="SvgjsPath16324" d="M170.6 200.7c-.9-1.8-2.4-3.3-3.6-4.9-1.2-1.6-2.4-3.3-3.5-4.9-.1-.2-.4 0-.3.2 1.9 3.4 3.9 7.5 6.9 10.1.3.2.7-.1.5-.5zm-19.5-1.4c-.1-.2-.5 0-.4.2 1.5 3.4 2.7 7.2 4.6 10.4-1.5.1-2.4 2-3.8 2.7-3 1.7-7 1.5-10.2 2.7-.3.1-.2.5.1.5 2.9 0 5.9-.6 8.7-1.2.9-.2 1.8-.4 2.6-.9 1.4-.9 1.7-2.4 3.4-2.9.3 0 .5-.3.4-.6-1-3.8-3.4-7.5-5.4-10.9zm13.7 6.8c-1.1-.1-1.9 1.1-1.8 2.1 0 .7.6 1.2.7 1.9.2 1.2-1.3 1.2-1.9 1-.5-.1-1.1-.4-1.5-.7-.2-.1-.4.2-.2.3 1.1.9 2.9 1.9 4.1.5.4-.5.5-1.1.3-1.7-.1-.5-.5-1-.5-1.5 0-.6.6-1.1 1.1-1.5 0 0-.1-.3-.3-.4zm-30.1 6.4c-1-4.3-2.5-8.5-3.6-12.7-.1-.2-.4-.2-.4.1.5 4.4 1.4 9 3.2 13 .2.5.9.1.8-.4zm.3.9c-1.5-.2-2.6.5-3.8 1.4-2.8 2.1-5.6 3-8.9 1.2-.1-.1-.3.1-.2.2 1.6 1.3 3.3 1.9 5.4 1.6 2.9-.4 4.6-2.9 7.4-3.6.5-.2.5-.8.1-.8zM115.3 203c-.1-.3-.6-.3-.6.1.2 2 .5 4 .8 6 .3 2 .4 4.1 1.2 5.9.1.3.6.1.6-.2.2-1.9-.4-3.8-.8-5.6-.3-2-.6-4.2-1.2-6.2zm0 12.6c-2.4.9-4.2-1.2-6.4-1.5-1.9-.2-3.4.4-4.8 1.6-.2.2.1.5.3.4 1.3-.9 3.1-1.4 4.8-1.1 1.3.3 2.3 1.3 3.6 1.7 1.2.4 2.2.4 3-.6.1-.3-.2-.6-.5-.5zm-14.5.9c-1.3-.4-2.2-.2-3.5-.1-3.1.4-4.2-.4-6.7-1.6-1.8-.9-3.5-1.2-5.1.1-.2.1.1.4.2.3 3.2-1.4 5.2 1.3 7.9 2.1 2.3.7 4.5-.7 6.8 0 .7.3 1-.6.4-.8zm-18.5-.6c-4.3 1.2-7.2-4.1-11.3-2.9-.3.1-.3.5 0 .6 2.5.7 4.6 2 7 2.9 1.6.6 3.1.7 4.6 0 .4-.2.1-.7-.3-.6zm-17.4-1.4c-.4-.1-.8.1-1.2 0-1.7-.2-1.6-.8-2.6-1.6-1.6-1.3-3.5-1.3-5.5-.9 1.9-3.7 3.9-8.6 3.8-12.9 0-.3-.4-.4-.5-.1-.9 1.9-1.3 4-1.8 6.1-.7 2.3-1.4 4.6-2 6.9v.2c-.1.1 0 .3.1.3 1.3.1 2.8 0 4 .5 1.1.5 1.5 1.4 2.4 2.1 1.3 1 2.8.1 4.1.9.3.2.8-.2.6-.6-.3-.6-.7-.8-1.4-.9zm-19.4-19.1c.2-.4-.5-.6-.7-.3-3.1 4.3-5.8 9.1-8.8 13.5-.2.3.3.7.5.4 3.6-3.9 7.1-8.7 9-13.6zm5.6 18.3c-1.2.1-2-2.5-2.8-3.2-.6-.5-1.3-.8-2.1-.9-.5 0-.8 0-1.2.1 2.3-3.1 4.5-6.6 5.6-10.2.1-.3-.3-.4-.5-.2-2.4 3.4-4.3 7.3-6.4 10.9-.2.1-.4.2-.6.2-.5.6-1 .7-1.7.3-.7 0-1.4-.2-1.9-.6-.8-.4-1.7-.9-2.5-1.4-.3-.2-.8.3-.4.6 2 1.9 4.3 3.6 6.9 2.5 3.3-1.4 3.1-1.3 5.2 1.3.4.5.3.8.9 1.2.7.5 1.1.4 1.8 0 .2 0 .1-.6-.3-.6zm-14.8-9.6c-.4-1.2-1.6-2-2.8-2.4-.7-.2-1.4-.3-2.1-.2-.7.1-5.1 1.4-4.1-.9.1-.3-.3-.6-.5-.3-.8 1.2 0 2.4 1.3 2.7 1.2.3 2.3-.4 3.5-.5 1.7-.1 2.7 1 3.8 2 .5.4 1.1.1.9-.4zm68.3 9.9c.2-3.3-.3-6.7-1.2-9.9-.1-.3-.6-.3-.6.1.3 3.3.6 6.7 1.3 9.9.1.2.5.1.5-.1z" fill="#4d7e86" stroke-width="none" opacity="1"></path></g><g id="svga-group-head" transform="matrix(1,0,0,1,0,0)"><g id="svga-group-ears-left-move" transform="matrix(1,0,0,1,0,0)"><g id="svga-group-ears-left" transform="matrix(1,0,0,1,0,0)"><path id="SvgjsPath16171" d="M64 93.7s-2.3-2.2-5-3.3-5.7.7-6.6 3.4 1.2 14 4.7 18.1 5.8 4.4 8.1 2.3c2.3-2 6.4-9.9-1.2-20.5z" fill="#b2713b" stroke-width="none" opacity="1" stroke="none"></path><path id="SvgjsPath16172" d="M65.2 95.3c.4.6.7 1.2 1.1 1.8.4.6.7 1.3 1 1.9.3.7.6 1.3.8 2 .2.7.5 1.4.6 2.2.1.4.1.8.2 1.1l.1 1.2c0 1.6-.2 3.1-.6 4.6-.5 1.5-1.1 2.8-2.1 3.9-.2.3-.5.5-.7.8-.3.2-.5.4-.8.6-.6.4-1.2.7-1.9.7-.7.1-1.4 0-2-.3s-1.2-.7-1.7-1.1-1-.9-1.5-1.5c-.5-.5-.9-1.1-1.3-1.7-1.5-2.5-2.4-5.3-3.2-8.1-.4-1.4-.7-2.8-1-4.3s-.5-2.9-.4-4.5c0-.4.1-.8.2-1.3.1-.2.1-.4.2-.6l.3-.5c.4-.7.9-1.2 1.4-1.7 1.1-.9 2.4-1.3 3.7-1.1.6.1 1.3.3 1.8.6.6.3 1.1.6 1.7 1 1.1.7 2.1 1.5 3.1 2.4l1 1.9zm-4.4-3.8c-.6-.3-1.1-.5-1.7-.7-.6-.2-1.1-.3-1.7-.3-1.1.1-2.2.5-3.1 1.3-.4.4-.8.8-1.1 1.4-.1.3-.3.5-.4.8-.1.3-.2.5-.2.9-.2 1.3-.1 2.8.1 4.2.2 1.4.4 2.9.7 4.3.7 2.8 1.7 5.6 3.3 7.7.8 1 1.8 1.9 2.7 2.7 1 .7 2.1 1.2 3.1 1 .5-.1 1-.3 1.5-.6s.9-.7 1.3-1.2c.7-1 1.4-2.1 1.7-3.4.4-1.3.6-2.6.7-4 0-1.4-.1-2.8-.4-4.2-.6-2.8-1.8-5.4-3.4-7.6-.9-1-2-1.7-3.1-2.3z" fill="#a35e26" stroke-width="none" opacity="1" stroke="none"></path><path id="SvgjsPath16173" d="M55.9 93.3c3 .5 5 5.7 5.6 9.2.1.1.1.2.2.3.3.5-.4 1.1-.7.6-.4-.7-1-1.5-1.7-1.8-1.3-.5-2 1-1.7 2.5.4 1.7 1.5 2.8 2.5 4.1.1.1 0 .3-.1.2-1.6-1-4-4.5-2.9-6.7.8-1.6 2.1-1.3 3.2-.4-.7-2-1.3-4-2.8-5.5-.5-.5-1.4-1.3-2.1-1.2-1.2.2-1.2 2-1.3 3.1-.1 1.5.1 3.1.3 4.7 0 .2-.2.2-.2.1-.6-2.4-1.8-9.8 1.7-9.2z" fill="#934d13" stroke-width="none" opacity="1" stroke="none"></path></g></g><g id="svga-group-ears-right-move" transform="matrix(1,0,0,1,0,0)"><g id="svga-group-ears-right" transform="matrix(1,0,0,1,0,0)"><path id="SvgjsPath16174" d="M136 93.7s2.3-2.2 5-3.3 5.7.7 6.6 3.4-1.2 14-4.7 18.1-5.8 4.4-8.1 2.3c-2.3-2-6.4-9.9 1.2-20.5z" fill="#b2713b" stroke-width="none" opacity="1" stroke="none"></path><path id="SvgjsPath16175" d="M136 93.6c1-.9 2-1.7 3.1-2.4.5-.4 1.1-.7 1.7-1 .6-.3 1.2-.5 1.8-.6 1.3-.1 2.6.2 3.7 1.1.5.4 1 1 1.4 1.7l.3.5c.1.2.1.4.2.6.1.4.2.9.2 1.3.1 1.6-.2 3.1-.4 4.5-.3 1.5-.6 2.9-1 4.3-.8 2.8-1.7 5.6-3.2 8.1-.4.6-.8 1.1-1.3 1.7-.4.5-.9 1-1.5 1.5-.5.4-1.1.8-1.7 1.1-.6.3-1.3.4-2 .3s-1.3-.4-1.9-.7c-.3-.2-.6-.4-.8-.6-.3-.2-.5-.5-.7-.8-.9-1.1-1.6-2.5-2.1-3.9-.4-1.5-.7-3-.6-4.6l.1-1.2c0-.4.1-.8.2-1.1.1-.8.4-1.5.6-2.2.3-.7.5-1.4.8-2s.6-1.3 1-1.9.7-1.2 1.1-1.8l1-1.9zm0 .1c-1.6 2.2-2.8 4.9-3.4 7.6-.3 1.4-.4 2.8-.4 4.2 0 1.4.2 2.7.7 4 .4 1.3 1 2.4 1.7 3.4.4.5.8.9 1.3 1.2.5.3.9.6 1.5.6 1 .2 2.1-.3 3.1-1 1-.8 1.9-1.7 2.7-2.7 1.6-2.1 2.6-4.9 3.3-7.7.4-1.4.6-2.8.7-4.3.2-1.4.2-2.9.1-4.2 0-.3-.1-.6-.2-.9-.1-.3-.2-.6-.4-.8-.3-.5-.7-1-1.1-1.4-.9-.7-1.9-1.2-3.1-1.3-.6 0-1.1.1-1.7.3-.6.2-1.1.4-1.7.7-1 .7-2.1 1.4-3.1 2.3z" fill="#a35e26" stroke-width="none" opacity="1" stroke="none"></path><path id="SvgjsPath16176" d="M144.1 93.3c-3 .5-5 5.7-5.6 9.2-.1.1-.1.2-.2.3-.3.5.4 1.1.7.6.4-.7 1-1.5 1.7-1.8 1.3-.5 2 1 1.7 2.5-.4 1.7-1.5 2.8-2.5 4.1-.1.1 0 .3.1.2 1.6-1 4-4.5 2.9-6.7-.8-1.6-2.1-1.3-3.2-.4.7-2 1.3-4 2.8-5.5.5-.5 1.4-1.3 2.1-1.2 1.2.2 1.2 2 1.3 3.1.1 1.5-.1 3.1-.3 4.7 0 .2.2.2.2.1.6-2.4 1.8-9.8-1.7-9.2z" fill="#934d13" stroke-width="none" opacity="1" stroke="none"></path></g></g><g id="svga-group-faceshape-wrap" transform="matrix(1,0,0,1,0,0)"><g id="svga-group-faceshape-single"><path id="SvgjsPath16203" d="M100.01 40.83c-21.4 0-39.8 15.6-41 44.1 0 0 .1 15.8 2.5 28.3 2.3 12.6 3.5 24.2 15.4 30.5 11.9 6.4 20 7.2 23.2 7.2 3.1 0 11.2-.9 23.2-7.2s13.1-18 15.4-30.5c2.3-12.6 2.5-28.3 2.5-28.3-1.4-28.4-19.8-44.1-41.2-44.1z" fill="#b2713b" stroke-width="none" opacity="1" stroke="none"></path><path id="SvgjsPath16204" d="M100 41.3c-21.4 0-39.8 15.6-41 44.1 0 0 .1 15.8 2.5 28.3s3.5 24.2 15.4 30.5c11.9 6.4 20 7.2 23.2 7.2 3.1 0 11.2-.9 23.2-7.2 11.9-6.4 13.1-18 15.4-30.5 2.3-12.6 2.5-28.3 2.5-28.3-1.4-28.4-19.8-44.1-41.2-44.1zm35.5 26.9.7 2.2c.1.4.6 2.2.6 2.2.1.4.9 4.5.9 4.5.1.4.3 2.4.3 2.4 0 .4.1.8.1 1.2l.2 2.4.2 2.7v.6c-.1 3.2-.3 6.4-.5 9.6s-.5 6.4-.9 9.6c-.2 1.6-.4 3.2-.6 4.7-.1.8-.2 1.6-.4 2.3-.1.8-.3 1.6-.4 2.4-.5 3.2-1 6.4-1.7 9.4-.7 3.1-1.6 6-2.9 8.7-1.3 2.7-3.1 5-5.4 6.9-1.1.9-6.21 4.62-11.3 6.42-1.5.6-3.8 1.38-5.3 1.78-1.5.5-3 .9-4.5 1.2s-3.1.6-4.6.6-3.1-.1-4.6-.3c-1.6-.2-3.1-.5-4.7-.9-3.1-.8-6.1-1.9-9.1-3.2-.7-.3-1.5-.7-2.2-1-.7-.4-1.4-.7-2.2-1.1-1.4-.7-2.7-1.6-4-2.6-2.5-2-4.4-4.5-5.8-7.3s-2.3-5.9-2.9-9-1.1-6.3-1.5-9.6c-.2-1.6-.5-3.2-.6-4.8-.2-1.6-.3-3.2-.5-4.8-.2-3.2-.4-6.4-.5-9.6 0-.8-.1-1.6-.1-2.4l-.1-2.4c0-1.6-.1-3.2-.1-4.8l.1-2.2.1-1.1.1-1.2s.2-2 .3-2.4c0 0 .3-2 .4-2.4 1.1-6.1 3-12.2 6.2-17.5 1.6-2.7 3.5-5.2 5.7-7.4s4.8-4.2 7.5-5.8c1.4-.8 2.8-1.5 4.3-2.1s3-1.1 4.6-1.5l1.8-.4.6-.1 1.2-.2c3.5-.51 9.2-.4 10.8-.2.4.1.8.1 1.2.2l1.2.2.6.1 1.8.4c1.5.4 3.1.9 4.6 1.5s2.9 1.3 4.3 2.1c2.8 1.6 5.3 3.6 7.5 5.8 2.2 2.2 4.1 4.8 5.7 7.4 1.6 2.9 2.8 5.8 3.8 8.8z" fill="#843e04" stroke-width="none" opacity="1" stroke="none"></path></g></g><g id="svga-group-mouth-single-move" transform="matrix(1,0,0,1,0,0)"><g id="svga-group-mouth-single" transform="matrix(1,0,0,1,0,0)"><path id="SvgjsPath16538" d="M90 128.1s2 2.6 4 3.8 9.4 1.3 13.4-.2 7.5-6.6 8.1-7.8c0 0-2.9 1.9-7.1 1.5-4.3-.3-13.7.8-15.6 1.6s-2.8 1.1-2.8 1.1z" fill="#904539" stroke-width="none" opacity="1" transform="translate(0 3)" stroke="none"></path><path id="SvgjsPath16539" d="M117.2 121.6c-.5-.4-1-.6-1.6-.4-.4.1-.4.7-.1.8.1.1.2.1.3.2l-.6.6c-.7.8-2.3 2.2-5.3.8-3-1.4-5.1-1.8-7.1-.5s-2.7.9-4.6.2c-1.9-.6-4.3.4-5.5 1.7-1.2 1.3-2.2 2.6-4.1 2s-.8.5-.8.5c.2.1 1.5 1.1 2.5 1.4 1.1.2 2.1-.5 4.5-1.2s8.1-1.2 11.9-1.1c5.4.2 6.8-.6 8.3-1.8.7-.6 1.2-1.1 1.5-1.6.1.2.2.4.4.5.3.2.8.1.9-.3.2-.8-.2-1.4-.6-1.8z" fill="#883b2f" stroke-width="none" opacity="1" transform="translate(0 3)" stroke="none"></path><path id="SvgjsPath16540" d="M95.7 129.5c3.4 0 7.4.1 10.8-.9.5-.1.5-.8 0-1-3.4-1-7.7-.1-10.9 1.2-.3.2-.3.7.1.7z" fill="#984f44" stroke-width="none" opacity="1" transform="translate(0 3)" stroke="none"></path></g></g><g id="svga-group-eyes-left-move" transform="matrix(1,0,0,1,0,0)"><g id="svga-group-eyes-left" transform="matrix(1,0,0,1,0,0)"><g id="svga-group-eyesback-left"><path id="SvgjsPath16245" d="M90.3 96s-2.1 5.1-7.1 6.9-8.2-1.4-8.9-2.9c-.6-1.5-.2-3.3.6-4.4.8-1.1 3.5-4.1 7.3-4 3.8.1 7.1 1.7 8.1 4.4z" fill="#ffffff" stroke-width="none" opacity="1"></path></g><g id="svga-group-eyesiriswrapper-left" transform="matrix(1,0,0,1,0,0)"><g id="svga-group-eyesiriscontrol-left" transform="matrix(1,0,0,1,0,0)"><g id="svga-group-eyesiris-left" transform="matrix(1,0,0,1,0,0)"><path id="SvgjsPath16217" d="M82 91.3c2.8 0 5.2 2.3 5.2 5.2s-2.3 5.2-5.2 5.2-5.2-2.3-5.2-5.2 2.3-5.2 5.2-5.2z" fill="#3e4442" stroke-width="none" opacity="1" stroke="none"></path><path id="SvgjsPath16218" d="M82 92.9c2 0 3.6 1.6 3.6 3.6S83.9 100 82 100s-3.6-1.6-3.6-3.6 1.6-3.5 3.6-3.5z" fill="#000000" stroke-width="none" opacity="1"></path><path id="SvgjsPath16219" d="m78.2 94 4 2.9-1.6-4.7c-.3-.4-2.3.7-2.4 1.8z" fill="#ffffff" stroke-width="none" opacity="1"></path></g></g></g><g id="svga-group-eyesfront-left"><path id="SvgjsPath16253" d="M70.73 98.03c0 6.9 4.93 12.5 11.02 12.5s11.02-5.6 11.02-12.5-4.93-12.5-11.02-12.5-11.02 5.59-11.02 12.5zm3.64 1.97c-.63-1.51-.23-3.3.57-4.36.8-1.05 3.5-4.13 7.29-4.04s7.12 1.71 8.06 4.44c0 0-2.11 5.13-7.06 6.89-4.96 1.77-8.23-1.42-8.86-2.93z" fill="#b2713b" stroke-width="none" opacity="1" stroke="none"></path><path id="SvgjsPath16254" d="M89.59 92.53c-1.75-1.79-4.06-3.11-6.64-3.07-2.48.04-4.29 1.11-6.21 2.55-.12.09-.23-.09-.15-.19 3.36-4.14 10.03-3.33 13.09.64.04.05-.04.11-.09.07z" fill="#a35e26" stroke-width="none" opacity="1" stroke="none"></path><path id="SvgjsPath16255" d="M72.93 98.19c-.07.14-.13.28-.19.43-.08.19.09.36.28.28.05-.02.09-.05.14-.07.06.51.22 1.03.45 1.5-.8.26-1.47 1.01-1.8 1.72-.05.1.08.22.16.12.32-.37.73-.71 1.15-.96.25-.15.52-.26.79-.37l.06.09c.32.47.72.87 1.15 1.23-.64.44-1.27 1.09-1.37 1.84-.02.15.16.31.28.16.28-.32.49-.72.76-1.06.2-.25.44-.48.68-.69.77.55 1.66.96 2.57 1.2-.26.49-.42 1.07-.28 1.61.05.18.29.16.35 0 .17-.5.27-1 .46-1.48.26.05.52.09.78.11.85.08 1.71.04 2.55-.11-.14.54-.2 1.14.02 1.64.07.15.33.11.36-.05.05-.28.03-.57.05-.86.02-.3.08-.58.16-.86 3.07-.74 5.83-2.91 7.1-5.79.22.06.49-.11.67-.24.14-.1.27-.22.38-.36.26-.02.5-.24.42-.59-.84-3.85-5.37-6.21-9.07-6.03-.07 0-.14.01-.22.02-.11-.53-.1-1.07-.13-1.63-.01-.11-.17-.18-.22-.06-.24.56-.18 1.16 0 1.72-.7.07-1.35.22-1.95.43-.29-.55-.33-1.16-.3-1.81.01-.12-.18-.18-.24-.06-.34.66-.22 1.42.15 2.03-.65.27-1.24.61-1.79 1.01-.16-.05-.52-.53-.57-.58-.26-.28-.54-.52-.82-.77-.08-.07-.21.02-.16.12.29.52.6 1.21 1.09 1.58-.42.35-.82.75-1.19 1.17-.7-.23-1.28-.74-1.72-1.35-.08-.12-.27-.05-.23.1.21.83.88 1.39 1.66 1.61-.36.45-.7.93-1.02 1.43-.93.2-1.82-.18-2.63-.7-.15-.1-.35.1-.25.25.58.86 1.6 1.12 2.56.97-.15.26-.3.53-.44.8-.1.14-.18.29-.24.44-.63.3-1.34.28-2.13.1-.19-.04-.37.21-.2.35.55.51 1.27.6 1.93.42zm16.95-1.1c.03-.1.07-.2.1-.3v-.04c.04.06.09.12.13.17-.07.07-.15.12-.23.17zm-15.01.14c.43-.57.82-1.19 1.29-1.7 1.23-1.37 2.65-2.46 4.45-2.96 4.12-1.15 6.91 1.06 9.27 4.08a.15.15 0 0 0-.15.05c-2.03 2.83-4.05 5.52-7.73 6.15-2.11.36-4.79-.17-6.22-1.87-1.05-1.25-.79-2.41-.91-3.75z" fill="#09152e" stroke-width="none" opacity="1" stroke="none"></path></g></g></g><g id="svga-group-eyes-right-move" transform="matrix(1,0,0,1,0,0)"><g id="svga-group-eyes-right" transform="matrix(1,0,0,1,0,0)"><g id="svga-group-eyesback-right"><path id="SvgjsPath16246" d="M109.7 96s2.1 5.1 7.1 6.9 8.2-1.4 8.9-2.9c.6-1.5.2-3.3-.6-4.4-.8-1.1-3.5-4.1-7.3-4-3.8.1-7.1 1.7-8.1 4.4z" fill="#ffffff" stroke-width="none" opacity="1"></path></g><g id="svga-group-eyesiriswrapper-right" transform="matrix(1,0,0,1,0,0)"><g id="svga-group-eyesiriscontrol-right" transform="matrix(1,0,0,1,0,0)"><g id="svga-group-eyesiris-right" transform="matrix(1,0,0,1,0,0)"><path id="SvgjsPath16220" d="M118 91.3c2.8 0 5.2 2.3 5.2 5.2s-2.3 5.2-5.2 5.2-5.2-2.3-5.2-5.2 2.4-5.2 5.2-5.2z" fill="#3e4442" stroke-width="none" opacity="1" stroke="none"></path><path id="SvgjsPath16221" d="M118 92.9c2 0 3.6 1.6 3.6 3.6S120 100 118 100s-3.6-1.6-3.6-3.6 1.7-3.5 3.6-3.5z" fill="#000000" stroke-width="none" opacity="1"></path><path id="SvgjsPath16222" d="m114.2 94 4 2.9-1.6-4.7c-.2-.4-2.2.7-2.4 1.8z" fill="#ffffff" stroke-width="none" opacity="1"></path></g></g></g><g id="svga-group-eyesfront-right"><path id="SvgjsPath16256" d="M118.26 85.53c-6.08 0-11.02 5.6-11.02 12.5s4.93 12.5 11.02 12.5 11.02-5.6 11.02-12.5-4.94-12.5-11.02-12.5zm-1.49 17.4c-4.95-1.77-7.06-6.89-7.06-6.89.94-2.73 4.27-4.36 8.06-4.44s6.49 2.99 7.29 4.04c.8 1.05 1.2 2.85.57 4.36-.63 1.51-3.9 4.7-8.86 2.93z" fill="#b2713b" stroke-width="none" opacity="1" stroke="none"></path><path id="SvgjsPath16259" d="M110.41 92.53c1.75-1.79 4.06-3.11 6.64-3.07 2.48.04 4.29 1.11 6.21 2.55.12.09.23-.09.15-.19-3.36-4.14-10.03-3.33-13.09.64-.04.05.04.11.09.07z" fill="#a35e26" stroke-width="none" opacity="1" stroke="none"></path><path id="SvgjsPath16260" d="M129.02 97.79c.17-.14-.01-.39-.2-.35-.79.18-1.5.19-2.13-.1-.06-.16-.15-.3-.24-.44-.14-.27-.29-.54-.44-.8.96.15 1.98-.11 2.56-.97.1-.15-.1-.34-.25-.25-.81.52-1.7.89-2.63.7-.32-.5-.66-.98-1.02-1.43.78-.22 1.45-.78 1.66-1.61.04-.15-.15-.21-.23-.1-.43.61-1.02 1.12-1.72 1.35-.37-.42-.76-.82-1.19-1.17.5-.37.8-1.06 1.09-1.58.06-.1-.07-.19-.16-.12-.29.25-.56.49-.82.77-.05.05-.41.53-.57.58-.55-.4-1.15-.74-1.79-1.01.36-.62.49-1.38.15-2.03-.06-.11-.24-.06-.24.06.03.65-.01 1.26-.3 1.81-.6-.21-1.26-.35-1.95-.43.18-.57.23-1.17 0-1.72-.05-.12-.22-.05-.22.06-.04.56-.02 1.1-.13 1.63-.07-.01-.14-.02-.22-.02-3.69-.17-8.23 2.19-9.07 6.03-.08.35.16.57.42.59.1.14.24.26.38.36.18.13.44.3.67.24 1.27 2.88 4.04 5.05 7.1 5.79.08.28.14.57.16.86.02.29 0 .58.05.86.03.16.29.2.36.05.22-.49.16-1.1.02-1.64.84.15 1.7.19 2.55.11.26-.03.52-.06.78-.11.2.48.3.98.46 1.48.05.16.3.18.35 0 .13-.54-.02-1.11-.28-1.61.92-.24 1.8-.65 2.57-1.2.24.21.48.44.68.69.27.34.48.73.76 1.06.13.14.3-.02.28-.16-.1-.75-.73-1.41-1.37-1.84.44-.36.83-.77 1.15-1.23l.06-.09c.27.11.54.21.79.37.42.25.83.59 1.15.96.08.09.21-.03.16-.12-.33-.71-1-1.46-1.8-1.72.23-.47.39-.98.45-1.5.05.02.09.05.14.07.19.08.36-.08.28-.28-.06-.14-.13-.29-.19-.43.64.16 1.36.07 1.93-.42zm-19.13-.86c.04-.06.09-.12.13-.17 0 .01-.01.02 0 .04.03.1.07.2.1.3-.08-.06-.16-.11-.23-.17zm14.33 4.05c-1.43 1.7-4.11 2.23-6.22 1.87-3.69-.63-5.71-3.32-7.73-6.15-.04-.05-.1-.06-.15-.05 2.36-3.02 5.15-5.23 9.27-4.08 1.8.5 3.23 1.59 4.45 2.96.46.52.86 1.13 1.29 1.7-.12 1.34.14 2.5-.91 3.75z" fill="#09152e" stroke-width="none" opacity="1" stroke="none"></path></g></g></g><g id="svga-group-facehighlight-single"></g><g id="svga-group-eyebrows-left-move" transform="matrix(1,0,0,1,0,0)"><g id="svga-group-eyebrows-left-rotate" transform="matrix(1,0,0,1,0,0)"><g id="svga-group-eyebrows-left" transform="matrix(1,0,0,1,0,0)"><path id="SvgjsPath16956" d="M76.7 85.3c.9-.1 7.5 1.2 8.8 1.4 3.3.4 5.5-.3 5.8-.8s1.1-1.2.5-2.3c-.6-1.1-7.4-1.9-11.8-.7-8.7 2.4-13.2 7.4-13.2 7.4 2.5-2.5 9-4.9 9.9-5z" fill="#3b3128" stroke-width="none" opacity="1"></path><path id="SvgjsPath16957" d="M77.2 85.1c1.2 0 2.4-.4 3.5-.7.1 0 0-.2-.1-.2-1.1.3-2.3.4-3.4.7-.1.1-.1.2 0 .2zm2.3.2c-.1 0-.1.2.1.2 1.3-.1 2.6-.5 3.8-.8.8-.2 1.5-.5 1.9-1 .1-.1-.1-.2-.2-.1-1.2 1-3.9 1-5.6 1.7zm3.8.6c2.3.3 5.1-.7 6.3-2.2.1-.1-.1-.2-.2-.1-.8.7-1.6 1.2-2.7 1.6s-2.2.4-3.3.6c-.2 0-.2.1-.1.1zm3.2.2c1.8.2 4.4-1.1 4.4-2.5 0-.1-.3-.2-.3 0-.1.7-1 1.3-1.7 1.6-.8.4-1.6.4-2.4.7-.1.1-.1.2 0 .2zm-12.2-.2c.8-.3 1.6-.8 2.4-1.2.1-.1 0-.2-.1-.1-.8.4-1.8.7-2.3 1.3-.2 0-.1.1 0 0z" fill="#4a423a" stroke-width="none" opacity="1"></path><path id="SvgjsPath16958" d="M66.6 90.6s.1.1.2 0c.8-.6 1.5-1.2 2.2-1.7.8-.5 1.7-.9 2.5-1.3 1.7-.8 3.3-1.6 5.2-2.2 3.9.2 16.6 4.2 15.4-1.7v-.2c0-.1-.2-.1-.3 0v.1c-.1-.3-.4-.7-.9-.8-.1 0-.1 0-.1.1 0 0 .1 0 .1.1-.5-.3-1.3-.5-1.8-.4-3.9-1.1-9.3.2-12.8 1.3-4.1 1.4-7.7 3.6-9.8 6.5 0 .1 0 .1.1.2zm2.2-2c5.1-4.2 13.7-7.8 21.1-5.6.1 0 .2 0 .1-.1h.2c.5.1.8.3 1 .7.1.1.2 0 .2 0 0-.1 0-.2-.1-.3 0 0 .1 0 .1.1.2.2.3.4.2.7-.1.1-.2.1-.2.2 0 0 0 .1.1.1.2 0 .4-.1.5-.2-.4 5.1-11.9.6-15.5 1.2 0 0-.1 0-.1.1-2 .3-3.6 1.3-5.3 2.1-.9.2-1.6.6-2.3 1z" fill="#2c2219" stroke-width="none" opacity="1"></path></g></g></g><g id="svga-group-eyebrows-right-move" transform="matrix(1,0,0,1,0,0)"><g id="svga-group-eyebrows-right-rotate" transform="matrix(1,0,0,1,0,0)"><g id="svga-group-eyebrows-right" transform="matrix(1,0,0,1,0,0)"><path id="SvgjsPath16959" d="M133.1 90.3s-4.4-5-13.2-7.4c-4.4-1.2-11.1-.4-11.8.7-.6 1.1.2 1.8.5 2.3s2.5 1.2 5.8.8c1.3-.2 7.9-1.5 8.8-1.4 1 .1 7.5 2.5 9.9 5z" fill="#3b3128" stroke-width="none" opacity="1"></path><path id="SvgjsPath16960" d="M122.8 84.9c-1.1-.3-2.3-.4-3.4-.7-.1 0-.2.1-.1.2 1.1.3 2.3.7 3.5.7.1 0 .1-.1 0-.2zm-7.9-1.5c-.1-.1-.2 0-.2.1.4.6 1.1.8 1.9 1 1.2.3 2.5.7 3.8.8.1 0 .1-.1.1-.2-1.7-.5-4.3-.5-5.6-1.7zm1.8 2.3c-1.1-.2-2.3-.3-3.3-.6s-1.9-.9-2.7-1.6c-.1-.1-.3 0-.2.1 1.2 1.5 3.9 2.5 6.3 2.2 0 .1 0 0-.1-.1zm-3.2.2c-.8-.2-1.7-.3-2.4-.7-.8-.4-1.6-.9-1.7-1.6 0-.1-.3-.1-.3 0 .1 1.4 2.6 2.7 4.4 2.5.2 0 .1-.1 0-.2zm12.3 0c-.6-.5-1.6-.9-2.4-1.2-.1 0-.2.1-.1.1.8.4 1.6.9 2.5 1.1 0 .1.1 0 0 0z" fill="#4a423a" stroke-width="none" opacity="1"></path><path id="SvgjsPath16961" d="M133.5 90.4c-2.1-2.9-5.8-5.2-9.8-6.5-3.5-1.2-8.9-2.4-12.8-1.3-.5-.1-1.3.1-1.8.4 0 0 .1 0 .1-.1l-.1-.1c-.4.1-.8.4-.9.8v-.1c0-.1-.2-.1-.3 0v.2c-1.1 5.9 11.5 1.9 15.4 1.7 1.9.5 3.5 1.3 5.2 2.2.9.4 1.8.8 2.5 1.3.8.6 1.4 1.2 2.2 1.7h.2c.1-.1.1-.1.1-.2zm-4.6-3c-1.7-.8-3.3-1.8-5.3-2.1l-.1-.1c-3.6-.6-15 4-15.5-1.2.1.1.3.3.5.2.1 0 .1-.1.1-.1 0-.1-.1-.2-.2-.2-.1-.2 0-.5.2-.7 0 0 .1 0 .1-.1-.1.1-.1.2-.1.3 0 .1.2.1.2 0 .2-.3.5-.6 1-.7h.2c0 .1.1.1.1.1 7.4-2.1 15.9 1.5 21.1 5.6-.7-.2-1.4-.6-2.3-1z" fill="#2c2219" stroke-width="none" opacity="1"></path></g></g></g><g id="svga-group-nose-single-move" transform="matrix(1,0,0,1,0,0)"><g id="svga-group-nose-single" transform="matrix(1,0,0,1,0,0)"><path id="SvgjsPath16289" d="M104.93 107.57c-.14-.18-.45.05-.32.25.84 1.29 1.76 2.56 2.54 3.89.53.9 1.07 2.03.7 3.12-.61 1.79-2.18 1.68-3.45 1 .48-.61.75-1.33.69-2.12-.02-.19-.29-.37-.44-.18-1.26 1.59-2.06 3.25-4.41 3.34-2.48.1-4.08-1.91-4.73-4.07-.06-.19-.32-.14-.33.04-.07.99.25 1.95.79 2.76-.36.07-.73.14-1.09.16-1.15.07-1.34-.02-2.11-.98-.8-1.01-.81-1.27-.36-2.39.21-.53.52-.98.82-1.45.97-1.52 1.84-3.06 2.48-4.75 1.29-3.37 1.85-7.09 1.22-10.66-.03-.15-.26-.11-.27.04-.01 2.89-.19 5.74-1.04 8.52-.88 2.88-2.54 5.04-3.92 7.64-.72 1.35-1.02 3.12.21 4.28 1.22 1.15 3.1.78 4.52.24.85.92 2.02 1.56 3.26 1.67 1.4.12 3.23-.55 4.36-1.7 1.31 1.45 3.82.78 4.47-1.08 1.01-2.82-2.06-5.64-3.59-7.57z" fill="#843e04" stroke-width="none" opacity="1" transform="translate(0 2)" stroke="none"></path><path id="SvgjsPath16290" d="M102 110.13c-.8-.75-2.07-.97-2.97-.27-.33.25-.52.57-.61.9-.16.05-.3.14-.44.27-.68.67-.39 1.71.19 2.34.5.53 1.31.78 2.02.75.88-.05 1.67-.46 2.16-1.2.57-.86.4-2.09-.35-2.79z" fill="#ba7b47" stroke-width="none" opacity="1" transform="translate(0 2)" stroke="none"></path></g></g><g id="svga-group-hair-front" transform="matrix(1,0,0,1,0,0)"><path id="SvgjsPath16344" d="M172.8 133.8c-.3-1.3-1.3-1.6-2-2.6-1.8-2.6-.7-2.9.3-5.1.8-1.7.8-3-.3-4.5s-2.3-1.2-2.3-3.7c0-1.4 1.1-2.8 1.3-4.2.2-1.7 0-3.1-1.1-4.4-1.7-1.9-3-.5-2.6-4.2.1-1.3.9-2.5.9-3.9 0-1.7-.4-3.6-1.8-4.6-1-.8-2.9-.7-3.4-2.2-.2-.7.8-3.5.7-4.8-.2-1.3-.9-2.2-2.2-2.3-.6-.1-1.3-.1-1.9-.2.4-1.4 1.5-2.9 1.3-4.3-.3-1.5-1.2-2.5-2.5-3.1-2.2-1-2.5-.4-2.1-3.1.1-.8.7-1.6.9-2.5.3-1.6.2-3.2-.8-4.5-1.3-1.7-2.7-1.3-4.4-1.9-.7-.3-1.1-.4-1.3-.7-.1-.4-.2-.8-.4-1.1 0-.4 0-.9-.1-1.6-.1-1.4.2-1.9-.4-3.2-1.2-2.8-4.2-3.9-6.8-3.1-.2-1.5.4-4.2-.8-5.4-.8-.8-1.8-1.2-2.8-1.4-.1-.2-.3-.3-.5-.5-.3-.2-.6-.5-.9-.6-.2-3.7-.8-8.2-4.9-7.8-1.1.1-1.9 1.1-2.9.5-.7-.5-1.1-2.8-1.7-3.5-1.1-1.3-2.3-2-4-2-2.7 0-3.8 1.5-5.7 1.7l-.3-.3c-1.3-1.1-2.8-1.5-4.4-1.4-.9-.6-1.8-1.1-3.3-.9-.7.1-1.2.5-1.8.8 0 0-.1 0-.1-.1h-.1c-.9-.7-1.1-1.5-2.5-1.8-1.7-.3-3 .3-3.8 1.4-.1 0-.3 0-.4-.1h-1.1c-.9-1-1.9-1.9-3.3-2.1-.6-.1-1.1 0-1.6.2-2.1-1.2-4.8-1.5-7.1-.9-1.5.5-2.4 1.3-3.3 2.2-.3.2-.7.4-1 .6-.4.3-.8.7-1.1 1.1-1.4.8-2.8.8-4.2.5-.9-.3-1.9-.7-2.6-.8-.6-.1-1.2-.1-1.8-.1-.5-.1-1.1-.1-1.7 0-1.9.2-3.7.9-5 2.4-.2.3-.4.6-.6.8-.5.7-1 1.4-1.3 2.2 0 .1-.1.3-.1.6-.4.4-.9.8-1.9 1.1-2.4.7-4.2 1.2-5.8 3.3-1.6 2.2-1.2 4.4-3.5 6-1.8 1.2-3.5 1.4-4.7 3.6-1 1.8-.6 3.8-.8 5.5-.3.6-.6 1.2-.8 1.8-1.2 1.5-3.5 1.9-4.7 3.7-1.5 2.1-1.1 3.7-1 5.7-.3.2-.6.3-.9.5-1.8 1.4-3.5 3.4-3.5 5.9 0 .3 0 .6.1.9 0 0 0 .1-.1.1-1.1 2.1-.8 4-.5 6.2.3 2.9-1.6 2.7-2.9 5-1.7 2.8.7 6-1.4 8.9-1.3 1.9-3.3 2.3-3.3 5.1 0 2.7 3.3 4.9 1.5 7.5-1.3 1.9-3 2-3.4 4.7-.4 3.2 1.5 6.4.9 9.7-.2.8.7 1.3 1.3.8.6-.5 1-.9 1.2-1.5v.8c.3 2 1.4 2.7.8 4.8-.5 2-2.1 2.6-3 4.3-1.5 2.9 0 6 1.4 8.6 1 1.8 3.6.2 2.7-1.6-1.3-2.8-.7-4.8 1-7.2.5-.7 1.3-1.2 1.7-2 1-2 .2-3.3-.2-5.3-1-4.2.8-5.1 2.8-8.2 1-1.6 1.7-3.2 1.4-5.1-.3-2.3-2.3-3.7-2.9-5.7-.5-1.9.6-2.8 1.8-3.6.5 1.4 1.4 2.6 2.3 4 1.6 2.5 1.3 4.1.3 6.8-.4.9-.6 1.8-.6 2.8 0 3.1 3.6 5.5 2.8 8.6-.6 2.1-2.6 3.3-2.6 5.7 0 1.2.6 2 1 3.1 1 2.4 1.5 4 .5 6.6-.3.7.6 1.2 1.1.9 2-1 3.1-2.7 3-5-.1-3.6-2.7-4.7-.4-8.3 1.4-2.1 2.3-4 1.5-6.6-.4-1.3-1.8-2.2-2.1-3.4-.7-2.4.8-3.2 1.7-4.8l.3-.6c.3.1.7.2 1 .3.3 2.6 1.9 3.4 3.5 5.1-1 .9-2.1 1.6-2.5 3.4-.3 1.4-.1 2.9 1 3.9.1.1.2.2.3.2-.2.2-.4.5-.6.8-.9 1.4-1.3 2.8-1 4.4.8 4 5.3 5.3 1.3 10-.9 1 .5 2.4 1.5 1.5 1.3-1.2 2.6-2.6 3-4.3 1.4 1.4 2.6 3 1.4 3.7-.9.5-.1 1.9.8 1.5 2.4-1.1 2-3.6.6-5.5-1.3-1.8-3.1-1.5-2.1-4.9.2-.6.8-1.2 1.1-1.7.7-1.5 1.1-3.4.4-4.9-.4-.7-1.2-1.3-1.9-1.8.9-1.1 1.7-2.2 1.9-3.6.4.4.9.7 1.2 1.4 2 3.5 1.3 3.6.6 6.3-.5 1.8-1 3.5-.3 5.4.8 2.1 5.7 4.7 3.9 7.3-.4.6.4 1.4 1 1 2.1-1.4 1.6-3.8.2-5.7-1.4-1.9-2.9-3.3-2.7-6 .1-1.1 1.1-2.5 1.3-3.6.4-1.6.6-3.1-.1-4.7-.3-.9-1.3-1.6-1.6-2.4-1.4-3.8-.2-3.2.6-5.6.7-2.2 1.5-4.3.7-6.6-.9-2.6-3-3.4-1.8-6.5.8-2 2.4-3.4 2.7-5.7.3-1.8-.3-3.3-1.2-4.9-1.7-3.2-1.6-4 1-6.4 2.4-2.3 4.3-4.9 2.5-8.1l5.4-1.1c0-5.1 2.1-13.2 2.1-13.2-1.1 6-.4 13.3-.4 13.3l8.5-.3 2.4-11.6c-.8 6-.8 11.9-.8 11.9l5.8.1c0-3.2 2.5-22.5 2.5-22.5-.8 6.6-.8 22.2-.8 22.2 4.3.6 10.4 0 10.4 0 .4-3.2 1-21.3 1-21.3 1.2 8 2.2 21.1 2.2 21.1.7-2 2-8.3 2-8.3.3 2.1-.4 8.6-.4 8.6l4.4.1.5-4.8 1.8 4.6c.7-8.6-.5-21.8-.5-21.8 1.5 7.4 2.1 21.2 2.2 21.3h8.5c.8-3.2-.3-15-.3-15 2.2 5.3 2.1 15.3 2.1 15.3 3.1.3 5.8.8 5.8.8l.5-10.5c.3 2.4.9 10.8.9 10.8s3.1 1 5.2 1.5c-.1.4-.1.7 0 1.1.3 1.4 1.5 2.1 2.4 2.9-.5 1.2-.9 2.3-.9 3.4.1.7.2 1.2.4 1.7-1.4 1.3-3.2 2.1-3.7 4.3-.5 2.2.7 3.3 1.9 5 1.4 1.8 2.3 3.1.4 5.2-.6.7-1.9 1.1-2.6 1.8-1.1 1-2 2.2-2 3.8 0 1.8 1.1 3 2.4 4 2.3 1.9 7 3 2.6 6.3-3.1 2.3-7.8 4-3.8 8.6 1.5 1.8 3.4 3.7 2.6 6.6-.3 1.1-1.8 1.8-2.1 3-.4 1.8 2.1 4.1 1.6 5.3-.5 1.1 1.1 2.1 1.7 1 .8-1.7.4-1.5 0-3.3-.6-2.6-.2-3 .9-4.9.4-.7 1-1.2 1.2-2 .5-1.7-.1-3.3-1.1-4.7-.6-.8-2.1-1.6-2.5-2.4-1-2.5.9-3.8 2.9-4.8 1.2-.6 2.3-1.5 3-2.5.9 2 2.2 2.2 1 4.9-.7 1.6-1.9 2.3-1.5 4.3.5 2.8 3.5 2.4 1.3 5.6-.6.9-1.9 1.3-2.1 2.5-.8 3.4 4 3 1.1 8.2-.3.5.4 1 .8.6 1.3-1.2 1.9-2.6 1.6-4.5-.1-.7-.8-1.5-.9-2.1-.5-4.3.8-2.1 1.9-3.9 1.1-1.8 1.3-1.8 1.1-4-.1-1.5-1.4-2-.6-3.9.4-1 1.8-1.8 2.2-2.9.9-2.2-.1-3.1-.8-5.1-.6-1.9-.8-3.2-.2-5 .3-.9.9-1.7 1.2-2.6.6.8 1.4 1.4 2.3 2 .2.1.5.3.7.4.5 2.5 1.9 4.7 1 7.6-.9 2.9-2.4 5.1-1 8.3.8 1.9 1 1.2.5 2.5-.4 1-1.3 1.5-1.6 2.7-.6 2.8 2 5.2 1.6 7.8-.2 1.6 1.6 2.4 2.5 1.1 1.2-1.7 1-3 .8-5-.2-1.8-.5-2.2.6-4 .5-.8 1.1-1.1 1.4-2.1.4-1.4-.2-2.6-.8-3.8 1.5 1.6 3.5 2.9 3.1 5.5-.4 3-2.7 5.5 1.3 7.2 1.5.6 2.3-1.8 1.1-2.5-.5-.3-.2-1.6.3-3 .8.7 2.2.3 2.3-1 .2-2.8 2.6-5.5 2.1-8.4-.2-1-.8-1.5-1.1-2.3-.9-2-1.1.1-.6-2.8.3-1.5 1-1.9 1.6-2.9 0 .1.1.2.1.3.5 1.1 1.3 1.2 1.9 2.2 1.5.4 1.9 1.6 1.2 3.5-.5.6-.9 1.3-1.1 2.1-.4 1.5 0 2.1.6 3.5.3.4.7.7 1.1 1 1.5 1.6 1.6 2.9.2 3.8 0 .5-.3 1-.3 1.6-.1 1.4 2 1.4 2.1 0-.1-2.5 2.1-2.6 1.6-4.9zM33.5 121.9c-.8 1.1-1.6 2.2-2.1 3.4v-1c-.1-1.3-1-3.1-.8-4.5.6-3.8 2.1-2.2 3.2-4.1.2-.3.4-.7.5-1 1.5 3 1.1 4.6-.8 7.2zm.2-16.3c-.4.3-.7.7-.9 1.1 0-1.9 1.7-2.1 3-3.8.4-.5.7-1 .8-1.5.1.3.2.7.1 1.1-.2 2-1.7 1.8-3 3.1zM133 54.8c-.2 0-.4-.1-.5-.1-.4-.6-.8-1.1-1.2-1.7.4-.1.8-.1 1.2-.2.5.7 1.1 1.4 1.6 2.1-.4 0-.7 0-1.1-.1zm-2-7.7c1.9.1.6-2.7 1.9 1.2.1.3.2.7.2 1-1 .2-1.7.4-2.4-1.3l-.3-.9h.6zm-55.7-4.7c.4 0 .7.1 1.1.2-.3.5-.6 1-.7 1-.4.2.2-.2-1.2-.6-.7-.2-1.3-.3-1.9-.3.7-.3 1.6-.4 2.7-.3zm-8.4 11.5c-.1.9-.5 1.7-1.6 2.1.1-.4 0-.8-.3-1.2.7-.3 1.3-.6 1.9-.9zm-11.6 3.4c-.1.6-.5 1.2-1.4 1.9l-1.2.6c.6-1.3 1.5-2.1 2.6-2.5zm-2.8 11.5c.2-3 1.1-3.7 2.6-4.4.1 1.7.8 2.8-.5 4.2-.7.7-1.3.9-2.1 1.2v-1zm1.4 13.5c-.1-.1-.2-.2-.2-.3-.8-1.1-.7-2.4-.2-3.9v.1c.4 1.9.8 3 .4 4.1zM47 70.6c-.2.6-.6 1.2-1.1 1.7l-.1.1c.2-.8.7-1.3 1.2-1.8zm-5.7 29.9c-.1.2-.3.3-.4.4-1.1-2.7-3.4-5.2-1.4-7.4.2-.2.4-.5.7-.6v.1c.1 3.2 3.2 5 1.1 7.5zm1.5-19.4c1.3-.9 2.7-1.7 3-3.5v-.2s.1 0 .1-.1c.2-.1.4-.1.6-.2-.2 1.5.2 2.8.5 4.5.3 2 .4 2.4-1.4 3.7-.2.2-.5.4-.8.5-.3-.9-.8-1.5-1.2-2.4-.7-1.8-1.3-1-.8-2.3zm2.6 27.5c-.9-1-1.8-2.2-1.4-3.2.2-.5 1.4-1.1 2.3-1.6.1.3.3.6.5.9.4.5.8.9 1.3 1.3-.8.8-1.8 1.6-2.7 2.6zM47.5 91c.3-.3.6-.5 1-.8.4-.3.9-.6 1.3-.8 0 .1.1.2.1.3-.8.4-1.7.8-2.4 1.3zm2.6 2.7c-.2.6-.6 1.2-1 1.8.1-.7.4-1.3 1-1.8zm.7 17.5c-.4.9-.9 1.6-1.3 2.2-.9-.3-1.2-1.1-.5-2.9.4-.9 1.2-1.6 2.1-2.3.2.8.2 1.7-.3 3zm2.2 25.1c-.1.3-.1.5-.2.8-.3-.4-.5-.8-.7-1.2-.8-2 0-3.5 1.2-5 .8.3.9 1.2.1 2.7.3 1.1.2 2-.4 2.7zm.7-11.1s.1 0 0 0c.2.6.1 1.1-.2 1.6 0-.4 0-1 .2-1.6zm.3-5.8c-.3-.6-.5-1.1-.6-1.6.5.3.8.7.6 1.6zm4-3c-.7-1.3-2.1-2.2-3.8-2.5H54c.2-.5.5-.9.7-1.4.5-.9.9-1.7 1.2-2.5.3.6.9 1 1.2 1.7 1.3 2.3 1.4 3.5.9 4.7zm.6-16.8c-.2 1.9-2.2 3.8-2.9 5.6l-.3 1.2c-.4-.6-.9-1-1.4-1.4 1.3-3.2-.5-4.4-2.4-5.9 1.1-1.6 3-3.2 3.6-4.9.6-1.8.2-2.8-.4-3.9.9-1.1 1.6-2.3 1.6-3.8 0 0 0-.1.1-.1.1.1.1.3.2.4.1.5.1 1 .1 1.5-.7 1.1-1 2.3-.9 3.6.2 3 3.1 4.9 2.7 7.7zM61.1 84c-.1.2-.2.5-.4.7v-1.5c0-.8-.3-1.5-.6-2.1.8.9 1.4 1.9 1 2.9zm88.3-9.8c.3-.8.5-1.7.5-2.5.5.1.9.2 1.1.4.9.9-.1 2.6-.7 4-.5-.3-.9-.6-1.2-1.1.1-.3.2-.5.3-.8zm-9.2-12.7c.6.4 1.4.2 1.9-.2 1.8.3 2.9.9 3.2 1.6-.1 0-.2-.1-.3-.1-1.4-.4-4.1-.1-5.2-1l-.1-.1c0-.2-.1-.5-.1-.7.2.2.4.4.6.5zm-.7 31.2c.3.2.5.4.8.7.3.2.7.4 1 .6.2.5.4 1 .7 1.4.1 1.5-.5 2.7-1.7 3.5-.1.1-.2.3-.3.4-.6-.5-1.4-1-1.8-1.6-1.1-2-.3-3.6 1.3-5zm1.9 22c-.2.4-.4.9-.5 1.3-1-1.5-2.8-1.9-4.1-3.1-3.3-2.9-.6-4 1.9-5.9.3-.2.7-.5 1-.8.5.5 1.1.9 1.5 1.5 2.9 3.8 1.4 4.2.2 7zm4.4-9.9c-.1.2-.1.4-.2.7-1-.9-2.5-2-2.3-3.4.1-.9 2.7-3 3.2-4.2.2.1.5.1.7.2.1 1.2.1 2.5.2 3.7-.3 1-1.3 1.9-1.6 3zm2.8-10.3c-.5-.1-1.1-.2-1.5-.4-.1-.1-.2-.2-.4-.2-.2-.5-.4-.9-.7-1.3-.3-.5-.8-.8-1.2-1.1-.2-1.1.4-2.1.8-3.4.4-1.1.8-2.1 1.2-3.2.3.2.5.4.8.7 4 3.2 1.5 5.3 1 8.9zM151 110c-.1-.4-.2-1-.4-1.8-.9-4-.4-3 .8-5.8.2-.4.3-.8.5-1.2.4.4.8.9 1.2 1.5 1.4 2.5-.8 4.9-2.1 7.3zm3.6-13.8c0 .2-.1.5-.1.7-.6-1.2-.6-2.3-.3-3.3.3.5.6 1.2.4 2.6zm7.2 4c-1-.4-1.9-.5-2.5-1 .8.3 1.8.4 2.5 1zm-.7 31.2c-.2-.2-.4-.5-.6-.7-1.8-2.2-4.1-2.2-2.6-6.2.2-.5.5-1 .8-1.5-.4 2.5 1.3 3.1 2.3 5.1.6 1.1.4 2.2.1 3.3zm-.8-11.9c-.1.1-.2.3-.2.4v-.1c.1-3.2-2.3-5.1-4.8-6.5.2-1.3.8-2.5 1.7-3.9 1.1-1.9 2.2-3.8 1.9-6.1.9.4.8-.3 1.2 1.4.3 1.7-.2 1.2-.6 2.4-.4 1-1 1.8-1.1 2.9-.3 2.4.6 3.2 2 4.8.2.2.8.2 1 .3 1.2 1.7-.3 2.9-1.1 4.4zm3.8-8c-1.1-1-.9.5-1.2-1.2.9.8 1.9 1.2 2.4 2.1-.4-.3-.8-.5-1.2-.9z" fill="#3b3128" stroke-width="none" opacity="1" stroke="none"></path><path id="SvgjsPath16345" d="M85.6 49c-4.5 8.4-6.6 17.1-7.1 26.5 0 .1-.2.1-.2 0-.2-9.5 2.5-18.5 7.1-26.7 0-.1.2 0 .2.2zm-.2-6.9c-7 8.3-10.5 20.2-9.2 31 0 .2.4.2.4 0 0-11.5 2.9-21 9.2-30.6.2-.3-.2-.7-.4-.4zm-8.6 8.1c.1-.2-.2-.2-.3-.1-3 7.8-4.5 15.9-3.8 24.2 0 .2.3.2.3 0-.2-8.3.9-16.2 3.8-24.1zm18.6-5.4c0-.1-.2-.1-.2 0 .5 10 .5 20 .7 30 0 .2.4.2.4 0 .7-10 .1-20.1-.9-30zm1.1 1c.7 10.9.8 21.4-.2 32.3 0 .3.4.3.5.1 1.8-10.5 2-21.9.1-32.4-.1-.2-.4-.1-.4 0zm4.8-2.3c2.5 10.4 4.8 20.5 4.4 31.3 0 .3.4.3.4 0 1.1-10.7-1.5-21.2-4.4-31.4-.1-.2-.5-.1-.4.1zm3.8 4.5c1.6 5.9 2.8 11.9 3.8 17.9 0 .2.5.2.5-.1-.5-6.1-1.9-12.2-3.9-18-.1-.1-.5 0-.4.2zm2.4-3.6c4.1 10.3 8 19.7 7.6 31 0 .3.5.3.5 0 1.4-10.7-2.7-21.8-7.8-31.1-.1-.2-.4-.1-.3.1zm10.9 3c6.5 7.5 8.2 16.6 8.9 26.3 0 .2.3.2.3 0-.4-9.5-2.2-19.4-9.1-26.4 0-.1-.1 0-.1.1zm9.2 12.8c-.5-2.9-1.7-5.7-3.2-8.2-.1-.1-.3 0-.2.1 1.4 2.6 2.4 5.3 3.2 8.1 0 .2.3.2.2 0zm6.3 17.9c.1-8.3-1.7-16.6-5.4-24-.1-.2-.3 0-.3.1 2.9 7.9 4.6 15.5 5.2 23.9 0 .4.4.4.5 0zM72.2 54c-1.8 3.2-3.1 6.6-4 10.1 0 .1.2.2.2 0 1.1-3.4 2.4-6.8 4.1-10 .1-.1-.2-.3-.3-.1zm-5.7-6.4c-1.9.3-3.4 1.2-4.2 3-.7 1.5-.8 3.7-1.2 5.3-1 3.4-1.5 2.7-3.7 4.5-1.2 1-2.1 1.9-2.1 3.6 0 .9.5 1.6.7 2.5.5 2.3.3 4.4-1.1 6.1-.6.7-1.6 1-2.3 1.7-1.2 1.2-2.1 2.5-1.6 4.2.6 2.2 2.7 3.6 1.5 6.5-.4.8-1.7 1.5-2.2 2.3-1.5 1.9-1 2.7-.5 4.8.8 4-1.6 6.4-1.1 10.2 0 .2.3.2.3 0-.1-4.2 3-4.5 3-7.7 0-1.1-.7-1.5-1-2.5-.7-2.7-.2-3.8 1.6-5.7.9-1 2.1-2 2.2-3.4.4-3.7-5-3.2-.2-8.6 1.3-1.5 3.4-1.9 3.8-4.2.5-3.4-3.8-5.1.1-9 1.2-1.2 3.1-1.5 4.2-3 2.2-3.1-2-8 4.2-9.8.3-.2.1-.9-.4-.8zM44.9 85.3c.2-.2 0-.6-.2-.4-6.3 3.9 1.5 6.9-2.6 12.5-2.6 3.6-3 3.9-1 8 1.1 2.3 1.1 3.7-.4 5.8-.5.7-1.3 1.2-1.7 2-.8 1.5-.6 2.1-.2 3.6.4 1.5.9 1.6 1.4 3.5.6 2.9-.5 2.7-.5 5.1-.1 2.7 3 4.1 2.4 7 0 .2.3.3.4.1.5-1.7 0-2-.4-3.8-1.1-1.6-1.2-3.4-.3-5.5l.6-1.2c0-.5.3-1.1.2-1.6-.2-1.5-1.5-2-2.1-3.2-2.1-4.6 1.9-4.7 2.8-7.8.3-1.1.1-1.9-.3-3-1.1-2.5-1.8-1.5-1.3-4.9.4-2.9.8-2.5 2.2-4.5.8-1.1 1.3-1.9 1.2-3.3-.2-3-4.5-5.3-.2-8.4zm105.5 25.6c-.6-2.9-.1-5.4 1.2-7.9.3-.5.6-1 .8-1.6.3-1.1.5-1.9.2-3s-.9-1.3-1.5-2.1c-1.4-2.2-2.8-4.5-2.2-7.3.3-1.8 1.4-3.4 1-5.3-.2-1.3-.9-2.2-1.9-3.1-.7-.6-1.7-.9-2.4-1.6-2.4-2.2-2.4-4.8-2.4-7.6.1-4-.6-6.8-4.1-9.1-2.8-1.9-3.4-1.2-4.9-6.2-.3-1.1 0-2.2-.4-3.4-.4-1.2-1.1-2-2.1-2.7-1.7-1.3-3.5-1.3-5.4-1.9-7.7-2.3-3.3-1.8-5.6-5.2-2.2-3.3-8.2-2.9-11.4-1.8-.4.1-.2.7.2.6 4.9-1.1 8.1-.4 11 4 .8 1.2.1 1.4 1.3 2.4.8.7 1.9.7 2.9 1 1.2.3 2.6.2 3.8.6 3.2 1.2 3.8 3.4 4.5 6.5.6 2.9.8 4.3 3.4 6.1 4.2 2.8 6 5 5.3 10.4-.2 1.3-.4 2.5 0 3.8.3 1.1.9 1.8 1.8 2.6 2.1 1.8 2.8 1.4 4.1 4.5 1.6 3.7 0 4.1-.2 7.8 0 1 0 1.8.4 2.7.6 1.3 1.9 1.9 2.7 3 2.4 3.4.2 5.1-1.1 8.2-.4 1-.8 1.8-.8 2.9.1 2.5 3.8 6.3.8 8.5-.2.2 0 .5.2.4 3-1.5 1.3-3.9.8-6.2zm12 15.1c.2-1.8 1-2.4.5-4.2-.8-2.9-3.4-4.4-3.1-7.8.2-2.2 1.6-4.2 1.7-6.5 0-1.4-.3-2.5-1.1-3.7-.4-.5-1-.8-1.3-1.3-2.4-3.2-2.3-4.5-2-7.9.4-4-.3-7.1-3.2-10-.3-.3-.7.1-.5.5 2.9 3.6 2.9 6.7 2.4 11-.2 1.7-.4 3.2.4 4.8.6 1.2 1.8 1.7 2.5 2.8 2.2 3.7.7 5.9-.1 9.4-.7 3.5 1.1 4.5 2.5 7.4 1.3 2.8.3 4-.1 6.7-.4 2.5 1.5 3.9 1.6 6.5 0 .4.5.3.5 0 .4-2.5-1-5-.7-7.7zm-19-18.8c-1.9-3.5-1.5-5.6 0-8.4 2.7-5.2-1.6-5.1-2.1-10.5-.2-1.7.7-2.4-.4-4-.4-.6-1-.9-1.5-1.3-2.8-2.7-3.8-5.5-3.2-9.5 0-.2-.2-.3-.3-.1-1.3 4.4.5 6.7 2.9 10.1 2.2 3 .3 4.8 1.2 7.4.2.5.6.8.8 1.2 1.1.7 1.6 1.8 1.5 3.2.9 1.3.9 2.5-.2 3.5-1.3 3.3-3 4-.7 7.5 2 3 3.9 4.2 2.9 8.4-.3 1.3-1.1 2.4-1.2 3.7-.2 3.1 2.9 5.9.7 9.1-.2.2.2.4.4.2.9-1.1 1.1-2 1-3.5-.4-3.7-1.8-2.5-.6-8 .3-1.2.7-1.5.9-2.7.2-1.5-.1-3.1-.7-4.5-.6-.9-.9-1-1.4-1.8zM88.9 38c-1 .2-1.5.7-2.4 1.2-1.6.9-2.9 2.1-5 2.4-1 .1-2-.2-3 0-1.8.3-2.4.9-3.3 2.4-.6.9-.5 1.5-1.3 2.7-1.2 1.7-1.3 1.2-2.4 2.3-.7.7-1.2.9-1.7 1.8-.1.3.2.5.4.2 1.2-1.8 3.4-2 4.6-3.6 1.6-2.1.9-4.2 4.9-5 1.4-.3 2.9.4 4.3 0 3-1 5.7-4.8 9.2-2.1.3.3.8-.3.5-.6-1.3-1.3-2.9-2-4.8-1.7zm-34.7 93.6c-.6-3.1-3.4-3.3-1.6-7.8.5-1.2 1.6-2.2 1.6-3.6.2-4-5.1-3.8-1.3-9.7.1-.2-.2-.5-.3-.3-1.2 1.6-1.9 3.2-1.4 5.3.3 1 1.2 1.6 1.5 2.5.5 1.6.1 3.4-.5 4.8-.4 1.1-1.3 1.9-1.5 3.1-.1.9.1 1.5.4 2.3.9 2.1 1.8 3.2 1.5 5.8-.2 2.4-.9 3.7 1 5.8.2.2.6-.1.4-.3-2.2-3.8.8-4.8.2-7.9zm99.6-11.9c-.4-1.4-.7-2.8-.9-4.2.2-1.3.5-2.7.8-4 0-1.8.2-1.1-.4-2.8-.1-.4-.8-.2-.6.2.6 2.6-.6 4.2-.6 6.6 0 2.9 1.7 4.6.4 7.9-.8 2.1-1.4 2.3-1.2 4.6.2 2 1.4 3.6.4 5.8-.3.7-1 1.2-1.2 2-1 2.8 1.2 3.3 1.9 6 0 .1.3.1.3 0-.1-3 .1.9-.6-2.1-1.2-1.2-1.3-2.7-.3-4.5.5-.6.9-1.2 1.3-1.9 1-2.1.1-2.6-.4-4.6-.8-3.3 1.4-5.6 1.1-9zm-19.8 4.8c.2-.2-.1-.5-.3-.3-2.4 2.1-.4 4.2 1 6.2 3.1 4.5.4 4.8-.3 8.2-.4 1.9 1.1 3 .9 4.9 0 .4.5.4.6.1.4-1.6 0-.3-.1-2-.1-2.1-.2-3.3.6-5.1.2-.5.5-.9.7-1.4.8-3.5-5.4-8.2-3.1-10.6z" fill="#4a423a" stroke-width="none" opacity="1" stroke="none"></path></g><g id="svga-group-glasses-single-move" transform="matrix(1,0,0,1,0,0)"><g id="svga-group-glasses-single" transform="matrix(1,0,0,1,0,0)"></g></g></g></g></g><rect id="svga-credit-rect" width="200" height="15" x="0" y="185" fill="#ecf0f1" opacity="0.5" style="display: none;"></rect><text id="svga-credit-text" font-family="Avenir Next, Roboto, Helvetica, Arial, sans-serif" font-size="10px" text-anchor="start" font-weight="400" size="10px" anchor="start" weight="400" fill="#333333" x="33.40447998046875" y="182.60824704170227" style="display: none;"><tspan id="SvgjsTspan15620" dy="13" x="33.40447998046875">Created on AvatarMaker.com</tspan></text></g></svg>